<svg width="80" height="60" viewBox="0 0 80 60" fill="none" xmlns="http://www.w3.org/2000/svg">
<g clip-path="url(#clip0_1809_6490)">
<path fill-rule="evenodd" clip-rule="evenodd" d="M0 0H80V60H0V0Z" fill="black"/>
<path fill-rule="evenodd" clip-rule="evenodd" d="M53.3374 0H79.9999V60H53.3374V0Z" fill="#009900"/>
<path fill-rule="evenodd" clip-rule="evenodd" d="M26.6626 0H53.3376V60H26.6626V0Z" fill="#BF0000"/>
<path fill-rule="evenodd" clip-rule="evenodd" d="M42.5968 33.4287H43.7001C43.7001 33.8541 43.966 34.3061 44.2983 34.5586H42.1714C42.5037 34.2662 42.5968 33.894 42.5968 33.4287Z" fill="white" stroke="#BD6B00" stroke-width="0.0664662"/>
<path fill-rule="evenodd" clip-rule="evenodd" d="M35.5776 27.1411L36.1891 27.8058L43.7663 27.8323L44.3778 27.1677L42.437 27.1278L41.5064 26.4631H38.449L37.5716 27.1411H35.5776Z" fill="white"/>
<path fill-rule="evenodd" clip-rule="evenodd" d="M38.6753 26.3701H41.2941C41.6397 26.184 41.7594 25.5858 41.7594 25.2535C41.7594 24.2698 41.0548 23.7912 40.3636 23.7646C40.2572 23.7646 40.1376 23.6849 40.111 23.5918C40.0445 23.3791 40.0578 23.2329 39.9781 23.2462C39.9249 23.2462 39.9382 23.3791 39.885 23.5652C39.8452 23.6716 39.7388 23.7646 39.6192 23.7779C38.7684 23.8178 38.2101 24.4426 38.2234 25.2535C38.2367 25.7852 38.3031 26.1042 38.6753 26.3701Z" fill="white" stroke="#BD6B00" stroke-width="0.0664662"/>
<path fill-rule="evenodd" clip-rule="evenodd" d="M34.3815 35.6886H45.5877L44.5907 34.8777H35.3652L34.3682 35.6886H34.3815Z" fill="white"/>
<path fill-rule="evenodd" clip-rule="evenodd" d="M39.526 32.6178L39.7254 33.2293H40.1907L39.8185 32.6178H39.526ZM39.2601 33.2293L39.3931 33.8408H39.9248L39.7254 33.2293H39.2601ZM40.1907 33.2293L40.5629 33.8408H41.3472L40.7357 33.2293H40.1907ZM35.6045 34.6118C36.0166 34.2263 36.2824 33.9072 36.2824 33.442H37.2927C37.2927 33.7078 37.3858 33.854 37.532 33.8408H38.5556V33.2426H37.8112V29.9591C37.7846 28.7893 39.2203 28.1247 39.8052 28.1247H36.309V28.0183H43.6602V28.1247H40.1375C41.1877 28.1247 42.1979 29.1216 42.2112 29.9591V30.8897H42.0783L42.065 29.9724C42.065 29.0552 40.9085 28.2044 39.978 28.231C39.1804 28.2443 37.9308 29.0153 37.9441 29.9591V30.2516L39.845 30.2649L39.8317 30.5972L40.1242 30.7833L40.7224 30.9694V31.4746L41.1478 31.5942V32.086L41.6529 32.312V32.8172L41.9853 33.0166L41.972 33.535L42.4106 33.8408H41.3738L42.0251 34.5719H41.0547L40.5762 33.8408H39.9514L40.2305 34.5586H39.5659L39.3931 33.8408H38.5689V34.6118H35.6178H35.6045ZM38.5556 32.6178V33.2293H39.2601L39.1272 32.6178H38.5423H38.5556Z" fill="white"/>
<path d="M39.7254 33.2293L39.526 32.6178H39.8185L40.1907 33.2293M39.7254 33.2293H40.1907M39.7254 33.2293L39.9248 33.8408H39.3931M39.7254 33.2293H39.2601M40.1907 33.2293L40.5629 33.8408H41.3472L40.7357 33.2293H40.1907ZM39.2601 33.2293L39.3931 33.8408M39.2601 33.2293H38.5556V32.6178H38.5423H39.1272L39.2601 33.2293ZM39.3931 33.8408L39.5659 34.5586H40.2305L39.9514 33.8408H40.5762L41.0547 34.5719H42.0251L41.3738 33.8408H42.4106L41.972 33.535L41.9853 33.0166L41.6529 32.8172V32.312L41.1478 32.086V31.5942L40.7224 31.4746V30.9694L40.1242 30.7833L39.8317 30.5972L39.845 30.2649L37.9441 30.2516V29.9591C37.9308 29.0153 39.1804 28.2443 39.978 28.231C40.9085 28.2044 42.065 29.0552 42.065 29.9724L42.0783 30.8897H42.2112V29.9591C42.1979 29.1216 41.1877 28.1247 40.1375 28.1247H43.6602V28.0183H36.309V28.1247H39.8052C39.2203 28.1247 37.7846 28.7893 37.8112 29.9591V33.2426H38.5556V33.8408H37.532C37.3858 33.854 37.2927 33.7078 37.2927 33.442H36.2824C36.2824 33.9072 36.0166 34.2263 35.6045 34.6118H35.6178H38.5689V33.8408H39.3931Z" stroke="#BD6B00" stroke-width="0.0664662"/>
<path fill-rule="evenodd" clip-rule="evenodd" d="M38.5952 31.5544H39.0339V32.5647H38.5952V31.5544Z" stroke="#BD6B00" stroke-width="0.0664662"/>
<path fill-rule="evenodd" clip-rule="evenodd" d="M37.9707 32.6313H38.3961V31.8868C38.3961 31.5678 38.6885 31.2355 38.8215 31.2222C38.981 31.2222 39.207 31.5279 39.2203 31.8603V32.6313H39.6722V30.717H37.9707V32.6313ZM41.3738 33.0699H41.9055V33.4953H41.3738V33.0699ZM41.0547 32.3654H41.5865V32.7775H41.0547V32.3654ZM40.5363 31.6476H41.068V32.0597H40.5363V31.6476ZM40.0976 31.0494H40.6294V31.4615H40.0976V31.0494Z" stroke="#BD6B00" stroke-width="0.0664662"/>
<path fill-rule="evenodd" clip-rule="evenodd" d="M39.7388 32.6312L40.2971 32.6577L41.2675 33.5085V33.0034L40.9352 32.7641V32.3653L40.4566 32.0994V31.6608L39.9913 31.5012V30.9296L39.7654 30.7302L39.7521 32.6445L39.7388 32.6312Z" stroke="#BD6B00" stroke-width="0.0664662"/>
<path fill-rule="evenodd" clip-rule="evenodd" d="M42.0518 31.3684H42.1847V32.3122H42.0518V31.3684Z" fill="white" stroke="#BD6B00" stroke-width="0.0664662"/>
<path fill-rule="evenodd" clip-rule="evenodd" d="M34.3284 28.2047C34.1689 27.9388 33.9695 28.5769 33.2915 29.0422C32.9858 29.2549 32.7598 29.8265 32.7598 30.1987C32.7598 30.4646 32.7864 30.7171 32.7598 30.9697C32.7465 31.1159 32.5737 31.4749 32.6933 31.5679C32.9858 31.7806 33.3713 32.2857 33.5441 32.4586C33.7036 32.5915 33.8366 31.754 33.9429 31.3951C34.0758 30.9963 34.0227 30.5044 34.3683 30.1455C34.6076 29.8797 35.2191 29.6404 35.1659 29.534L34.3284 28.2047Z" fill="white" stroke="#BD6B00" stroke-width="0.0664662"/>
<path fill-rule="evenodd" clip-rule="evenodd" d="M34.2886 30.2518C34.2359 30.1263 34.1641 30.0098 34.076 29.9061C33.9912 29.8011 33.8815 29.7188 33.7569 29.6669C33.6345 29.6305 33.5242 29.5616 33.4379 29.4675C33.387 29.4104 33.3506 29.3421 33.3315 29.2681C33.3164 29.1801 33.3164 29.0902 33.3315 29.0022L33.2917 29.0421C32.9859 29.2548 32.7599 29.8264 32.7599 30.1986C32.7558 30.3005 32.7558 30.4025 32.7599 30.5043C32.7865 30.5708 32.7998 30.6373 32.8397 30.6771L32.9859 30.7835L33.3448 30.8765C33.4792 30.937 33.5976 31.028 33.6904 31.1424C33.7872 31.2449 33.8679 31.3614 33.9297 31.488L33.9563 31.3817C34.0627 31.0228 34.0494 30.5974 34.3019 30.2518H34.2886Z" fill="#BF0000" stroke="#BD6B00" stroke-width="0.0664662"/>
<path d="M33.3311 28.989C33.2646 29.4277 33.5172 29.5872 33.7565 29.667C33.9958 29.76 34.1952 30.0126 34.2882 30.2519M32.7329 30.4513C32.8393 30.8501 33.1051 30.7969 33.3444 30.8767C33.5837 30.9697 33.8362 31.2755 33.9426 31.5147" stroke="#BD6B00" stroke-width="0.0664662"/>
<path fill-rule="evenodd" clip-rule="evenodd" d="M34.1025 27.9386L34.2355 27.8589L36.5884 31.8336L36.4554 31.9133L34.1025 27.9254V27.9386Z" fill="white" stroke="#BD6B00" stroke-width="0.0664662"/>
<path fill-rule="evenodd" clip-rule="evenodd" d="M34.355 27.7792C34.355 27.8497 34.327 27.9173 34.2771 27.9672C34.2272 28.017 34.1596 28.045 34.0891 28.045C34.0186 28.045 33.951 28.017 33.9011 27.9672C33.8513 27.9173 33.8232 27.8497 33.8232 27.7792C33.8232 27.7087 33.8513 27.641 33.9011 27.5912C33.951 27.5413 34.0186 27.5133 34.0891 27.5133C34.1596 27.5133 34.2272 27.5413 34.2771 27.5912C34.327 27.641 34.355 27.7087 34.355 27.7792ZM36.3755 24.5888H37.3327V24.8015H36.3755V24.5888ZM36.3755 25.0009H37.3327V26.8353H36.3755V25.0009ZM36.3224 24.3362H37.3858C37.4124 23.9773 37.0535 23.5918 36.8541 23.5918C36.6414 23.6051 36.3091 23.9906 36.3224 24.3362Z" fill="white" stroke="#BD6B00" stroke-width="0.0664662"/>
<path fill-rule="evenodd" clip-rule="evenodd" d="M39.0209 24.1237C38.8215 24.2034 38.662 24.4294 38.5689 24.6953C38.4759 24.9612 38.436 25.2669 38.4891 25.5062C38.4891 25.5992 38.529 25.6524 38.5556 25.7056C38.5822 25.7455 38.6088 25.7721 38.6354 25.7721C38.6753 25.7721 38.7151 25.7721 38.7284 25.7322L38.755 25.6258C38.7417 25.36 38.7417 25.1207 38.7949 24.908C38.854 24.6718 38.9954 24.4644 39.1937 24.3231C39.2336 24.2965 39.2469 24.2566 39.2602 24.23C39.2597 24.195 39.2453 24.1615 39.2203 24.137C39.1671 24.0971 39.0873 24.0838 39.0209 24.1237ZM39.0475 24.1769C39.1006 24.1503 39.1538 24.1769 39.1804 24.1902L39.1937 24.2167C39.1937 24.23 39.1937 24.2433 39.1538 24.2699C38.9496 24.4197 38.8039 24.6359 38.7417 24.8814C38.6866 25.1255 38.6731 25.3772 38.7018 25.6258C38.7018 25.6546 38.6925 25.6826 38.6753 25.7056C38.6753 25.7056 38.6753 25.7189 38.6487 25.7056C38.6487 25.7056 38.6221 25.7056 38.5955 25.6657C38.5692 25.6158 38.5512 25.5619 38.5423 25.5062C38.5024 25.2669 38.5423 24.9745 38.6354 24.7086C38.7284 24.4693 38.8747 24.2566 39.0342 24.1769H39.0475Z" fill="#BD6B00"/>
<path fill-rule="evenodd" clip-rule="evenodd" d="M39.3665 24.3761C39.1671 24.4692 39.0342 24.6819 38.9677 24.9345C38.8971 25.1898 38.8835 25.4576 38.9278 25.7188C38.9544 25.8916 39.0608 25.9846 39.1405 25.9846C39.1804 25.9979 39.2203 25.9846 39.2469 25.9447C39.2735 25.9049 39.2868 25.865 39.2735 25.8118C39.2203 25.5991 39.207 25.3598 39.2336 25.1339C39.2735 24.9079 39.3665 24.7085 39.526 24.5888C39.5659 24.5489 39.5925 24.5224 39.5925 24.4825C39.5937 24.4681 39.592 24.4536 39.5874 24.4399C39.5829 24.4262 39.5755 24.4135 39.5659 24.4027C39.5127 24.3628 39.433 24.3496 39.3665 24.3761ZM39.3931 24.4426C39.4463 24.416 39.4994 24.4293 39.526 24.4426L39.5393 24.4825L39.4994 24.5357C39.4102 24.6072 39.3361 24.6957 39.2813 24.7961C39.2265 24.8965 39.1922 25.0068 39.1804 25.1206C39.1405 25.3598 39.1671 25.6124 39.207 25.8118C39.2203 25.865 39.207 25.8916 39.207 25.9182L39.1405 25.9314C39.1006 25.9314 39.0076 25.865 38.981 25.7055C38.9411 25.4795 38.9544 25.187 39.0209 24.9477C39.0874 24.7085 39.2203 24.5091 39.3931 24.4426Z" fill="#BD6B00"/>
<path fill-rule="evenodd" clip-rule="evenodd" d="M36.3222 28.3242H37.3857V29.7865H36.3222V28.3242ZM36.3887 30.6372H37.4123V30.9563H36.3887V30.6372ZM36.3621 31.1823H37.4256V32.3388H36.3621V31.1823ZM36.2823 32.5781H37.4389V33.2294H36.2823V32.5781ZM36.4286 30.3714H37.3591L37.5452 30.0523H36.269L36.4286 30.3714ZM37.6781 29.2282L37.6914 28.4306H38.3295C38.0552 28.6441 37.8326 28.9167 37.6781 29.2282Z" fill="white" stroke="#BD6B00" stroke-width="0.0664662"/>
<path fill-rule="evenodd" clip-rule="evenodd" d="M36.4951 29.5604C36.4951 29.7332 36.6945 29.6668 36.6945 29.5737V28.8293C36.6945 28.6963 37.0136 28.7229 37.0136 28.816V29.6136C37.0136 29.7465 37.2395 29.7332 37.2262 29.6136V28.6831C37.2262 28.3906 36.4951 28.4039 36.4951 28.6698V29.5604ZM36.4951 31.3284H37.2528V32.2589H36.4951V31.3284Z" stroke="#BD6B00" stroke-width="0.0664662"/>
<path fill-rule="evenodd" clip-rule="evenodd" d="M36.9737 31.7273H37.2396V31.8603H36.9737V31.7273ZM36.5085 31.7273H36.7743V31.8603H36.5085V31.7273ZM36.7743 31.3285H36.9737V31.7273H36.7743V31.3285ZM36.7743 31.8603H36.9737V32.2723H36.7743V31.8603ZM32.5604 21.8903C32.6135 22.6214 32.3743 23.0335 31.9888 22.9671C31.8824 22.5683 32.1217 22.2891 32.5604 21.8903ZM31.6963 23.5254C31.3507 23.3526 31.6032 21.9967 31.7362 21.425C31.8292 22.1562 32.002 23.1931 31.6963 23.5254Z" fill="white"/>
<path d="M36.9737 31.7273H37.2396V31.8603H36.9737M36.9737 31.7273V31.8603M36.9737 31.7273V31.3285H36.7743V31.7273M36.9737 31.7273H36.7743M36.9737 31.8603H36.7743M36.9737 31.8603V32.2723H36.7743V31.8603M36.7743 31.7273H36.5085V31.8603H36.7743M36.7743 31.7273V31.8603M32.5604 21.8903C32.6135 22.6214 32.3743 23.0335 31.9888 22.9671C31.8824 22.5683 32.1217 22.2891 32.5604 21.8903ZM31.6963 23.5254C31.3507 23.3526 31.6032 21.9967 31.7362 21.425C31.8292 22.1562 32.002 23.1931 31.6963 23.5254Z" stroke="#BD6B00" stroke-width="0.0664662"/>
<path fill-rule="evenodd" clip-rule="evenodd" d="M31.8158 23.5918C32.4008 23.7912 32.8793 23.1664 33.0255 22.4353C32.547 23.0999 31.7627 23.0999 31.8291 23.5918H31.8158ZM31.3772 24.2697C30.9252 24.1501 31.1911 22.7144 31.2841 22.1428C31.3772 22.741 31.6962 24.0703 31.3772 24.2697ZM31.5367 24.2299C31.5633 23.738 32.0551 23.8709 32.4008 23.6051C32.3343 23.8709 32.1349 24.2963 31.5367 24.2299ZM30.9784 24.8945C30.5264 24.7616 30.7923 23.2196 30.7657 22.5815C30.8986 23.1398 31.324 24.7483 30.9784 24.8945ZM31.1911 24.8281C31.5633 24.9477 32.0551 24.6951 32.095 24.2565C31.7627 24.4824 31.2575 24.3096 31.1911 24.8281Z" fill="white" stroke="#BD6B00" stroke-width="0.0664662"/>
<path fill-rule="evenodd" clip-rule="evenodd" d="M30.6328 25.5726C30.2075 25.6125 30.3936 24.2965 30.3936 23.0735C30.5531 24.2167 30.9918 25.2669 30.6328 25.5726Z" fill="white" stroke="#BD6B00" stroke-width="0.0664662"/>
<path fill-rule="evenodd" clip-rule="evenodd" d="M30.7925 25.5195C31.0849 25.6524 31.6034 25.4264 31.7496 24.9346C31.2179 25.1605 30.8722 24.9346 30.7925 25.5195ZM34.1956 22.5684C34.1158 23.2197 33.8499 23.5919 33.4644 23.5255C33.3581 23.1267 33.6771 22.8608 34.1956 22.5684ZM33.1587 24.2167C33.81 24.3098 34.036 23.8179 34.488 23.1666C33.8632 23.6185 33.1321 23.6983 33.1587 24.23V24.2167Z" fill="white" stroke="#BD6B00" stroke-width="0.0664662"/>
<path fill-rule="evenodd" clip-rule="evenodd" d="M32.9592 24.1502C32.6136 23.7248 32.9592 23.1798 33.2251 22.7278C33.1719 23.4057 33.3979 23.7912 32.9592 24.1502ZM32.8263 24.8547C32.7731 24.4293 33.4909 24.3363 33.81 24.1103C33.6903 24.3496 33.5441 25.0009 32.813 24.8547H32.8263Z" fill="white" stroke="#BD6B00" stroke-width="0.0664662"/>
<path fill-rule="evenodd" clip-rule="evenodd" d="M32.6664 24.8548C32.1746 24.8017 32.374 23.9642 32.7329 23.5122C32.5866 24.1503 32.9987 24.589 32.6664 24.8548Z" fill="white" stroke="#BD6B00" stroke-width="0.0664662"/>
<path fill-rule="evenodd" clip-rule="evenodd" d="M32.2942 25.5591C31.7359 25.2933 32.0948 24.602 32.2942 24.1899C32.2145 24.735 32.6665 25.1471 32.2942 25.5459V25.5591Z" fill="white" stroke="#BD6B00" stroke-width="0.0664662"/>
<path fill-rule="evenodd" clip-rule="evenodd" d="M32.4009 25.4796C32.6934 25.8784 33.265 25.3732 33.3846 24.7883C32.8928 25.2004 32.5206 25.134 32.4009 25.4929V25.4796ZM31.1248 28.1781C31.0716 27.6065 31.497 26.5829 31.1912 26.0246C31.1514 25.9448 31.2843 25.7454 31.3773 25.8651C31.5103 26.0645 31.6432 26.6228 31.7097 26.4101C31.7628 26.1841 31.7761 25.7986 31.9755 25.7189C32.1085 25.679 32.2813 25.6391 32.2281 25.8518C32.1749 26.0379 32.0686 26.3038 32.1882 26.3171C32.2547 26.3171 32.4541 26.0512 32.6269 25.9183C32.7598 25.8119 32.9725 25.998 32.7598 26.1575C32.1218 26.6893 31.497 26.9418 31.1248 28.1781ZM29.9683 36.7523C29.8885 36.7523 29.7954 36.7124 29.8885 36.832C30.6462 37.7625 30.8589 38.0284 31.9622 37.8955C33.0656 37.7492 33.3314 37.4435 34.1157 37.0048C34.3428 36.8854 34.5913 36.8121 34.8469 36.7893C35.1024 36.7665 35.36 36.7945 35.6046 36.8719C35.8173 36.9384 35.9502 36.9384 35.7907 36.7788C35.6312 36.6326 35.4584 36.4199 35.259 36.2737C34.7631 35.942 34.1587 35.8135 33.5707 35.9148C32.7731 36.0477 32.0952 36.5661 31.2843 36.7655C30.85 36.8533 30.4025 36.8533 29.9683 36.7655V36.7523ZM36.3224 38.4139C36.4554 38.4405 36.5484 38.7064 36.6282 38.5336C36.7345 38.2278 36.6548 38.0018 36.5218 38.0151C36.3623 38.055 36.1097 38.4139 36.3224 38.4139Z" fill="white" stroke="#BD6B00" stroke-width="0.0664662"/>
<path fill-rule="evenodd" clip-rule="evenodd" d="M29.4499 27.7394C29.2903 27.5533 29.3302 27.5002 29.5828 27.4869C29.7689 27.4869 30.1411 27.6198 30.2873 27.5002C30.4203 27.4071 30.3538 27.0083 30.4203 26.8355C30.4468 26.7159 30.5133 26.5696 30.6861 26.8089C31.1647 27.5799 31.7496 28.5105 32.0155 29.4144C32.1484 29.9195 32.0155 30.7171 31.5635 31.2489C31.5635 30.7969 31.404 30.4912 31.2046 30.1056C30.9387 29.6138 29.9949 28.2446 29.4499 27.7262V27.7394Z" fill="white"/>
<path fill-rule="evenodd" clip-rule="evenodd" d="M31.4303 31.7804C31.962 31.7804 32.0551 31.0759 32.0551 30.8765C31.7892 30.9296 31.3372 31.3683 31.4303 31.7804ZM36.0164 38.6796C36.3887 38.7594 36.3754 37.8554 35.9899 37.4699C36.1627 38.0548 35.724 38.5866 36.0032 38.6663L36.0164 38.6796ZM35.8569 38.6663C35.8835 39.0917 34.7935 38.6131 34.5276 38.2675C35.1657 38.5467 35.8303 38.3207 35.8569 38.6663ZM35.3917 38.0548C35.4315 38.4669 34.4611 38.0947 34.1554 37.7757C34.8068 37.9884 35.3518 37.7092 35.3917 38.0415V38.0548ZM35.5645 38.108C35.95 38.201 35.8835 37.2572 35.5113 36.9382C35.6974 37.563 35.272 38.0149 35.5645 38.108ZM35.1657 37.5364C35.5512 37.6294 35.3252 36.8185 35.046 36.4995C35.0992 37.0844 34.9131 37.4965 35.179 37.5364H35.1657ZM34.9663 37.5364C35.0062 37.9618 34.2484 37.6427 33.956 37.2306C34.5941 37.43 34.9264 37.1908 34.9663 37.5364ZM34.7669 37.2041C35.0062 37.0312 34.7536 36.566 34.275 36.5926C34.3282 36.8717 34.4877 37.3769 34.7669 37.2041ZM36.6279 39.1582C36.6412 39.5835 35.5645 39.3709 35.2189 38.9189C35.9101 39.0518 36.5881 38.8125 36.6146 39.1582H36.6279ZM32.3209 38.3872C32.3608 38.8125 31.1777 38.334 30.8853 37.9352C31.51 38.1479 32.281 38.0415 32.3209 38.3872ZM33.0388 38.56C33.2913 38.3871 32.7862 37.9352 32.3741 37.8288C32.4273 38.108 32.7729 38.7328 33.0388 38.5733V38.56ZM33.1185 38.8657C33.1451 39.2512 31.8557 39.0385 31.5233 38.6796C32.6267 38.879 33.0786 38.5334 33.1185 38.8657Z" fill="white" stroke="#BD6B00" stroke-width="0.0664662"/>
<path fill-rule="evenodd" clip-rule="evenodd" d="M33.73 39.1183C33.8629 39.4772 32.6267 39.3841 32.188 39.1847C32.8925 39.1847 33.6237 38.8657 33.73 39.1183Z" fill="white" stroke="#BD6B00" stroke-width="0.0664662"/>
<path fill-rule="evenodd" clip-rule="evenodd" d="M34.3015 39.3843C34.4344 39.7033 33.2912 39.7033 32.7329 39.5172C33.4773 39.5172 34.1686 39.0652 34.3015 39.3843ZM35.139 39.5571C35.3517 39.9426 34.1287 39.9692 33.7432 39.7831C34.4344 39.69 34.9662 39.2513 35.139 39.5571ZM33.7166 38.9057C33.3311 39.145 33.3577 38.4272 33.0519 37.9353C33.5305 38.374 33.9825 38.6797 33.7166 38.9057Z" fill="white" stroke="#BD6B00" stroke-width="0.0664662"/>
<path fill-rule="evenodd" clip-rule="evenodd" d="M34.4082 39.1716C34.0891 39.4508 33.8233 38.4671 33.5308 37.9088C34.0094 38.4405 34.7006 38.9323 34.4082 39.1583V39.1716ZM35.3121 39.4375C35.0463 39.7565 34.2487 38.507 33.9562 37.8423C34.3949 38.3607 35.5248 39.1716 35.3121 39.4375ZM34.5411 40.3946C34.4082 40.8732 32.3876 39.9426 32.1483 39.4508C33.3181 40.0623 34.5677 39.9293 34.5411 40.3813V40.3946ZM28.0673 30.5842C28.0141 30.5177 27.8812 30.5842 27.9078 30.7304C27.9477 30.9298 28.2401 31.9534 28.7452 32.299C29.1042 32.5649 31.0051 32.977 31.8559 33.1631C32.3344 33.2561 32.7199 33.4954 33.039 33.8676C32.9297 33.4265 32.7966 32.9916 32.6402 32.5649C32.4807 32.1661 32.0553 31.7407 31.6033 31.7274C30.7924 31.6875 29.7289 31.621 28.9446 31.2887C28.5894 31.1389 28.2815 30.8954 28.054 30.5842H28.0673Z" fill="white" stroke="#BD6B00" stroke-width="0.0664662"/>
<path fill-rule="evenodd" clip-rule="evenodd" d="M32.7599 34.6386C33.0258 34.8247 33.3049 34.1467 32.9859 33.4954C32.9726 34.1201 32.4808 34.3328 32.7599 34.6386Z" fill="white" stroke="#BD6B00" stroke-width="0.0664662"/>
<path fill-rule="evenodd" clip-rule="evenodd" d="M33.0124 35.2634C33.3713 35.3698 33.4777 34.7317 33.2517 34.2266C33.2916 34.7716 32.6801 35.1039 33.0124 35.2634Z" fill="white" stroke="#BD6B00" stroke-width="0.0664662"/>
<path fill-rule="evenodd" clip-rule="evenodd" d="M33.2914 35.7685C33.637 35.9413 33.7567 35.29 33.5174 34.8247C33.544 35.4229 33.0255 35.609 33.2914 35.7552V35.7685Z" fill="white" stroke="#BD6B00" stroke-width="0.0664662"/>
<path fill-rule="evenodd" clip-rule="evenodd" d="M33.145 35.8084C33.0121 36.2072 32.2145 35.4494 32.0815 35.0374C32.5734 35.5292 33.2381 35.4627 33.145 35.7951V35.8084Z" fill="white" stroke="#BD6B00" stroke-width="0.0664662"/>
<path fill-rule="evenodd" clip-rule="evenodd" d="M32.7863 35.1836C32.6268 35.5824 31.6298 34.5189 31.4038 34.0271C31.8957 34.5189 32.8927 34.8912 32.7863 35.1703V35.1836Z" fill="white" stroke="#BD6B00" stroke-width="0.0664662"/>
<path fill-rule="evenodd" clip-rule="evenodd" d="M32.587 34.5587C32.4275 35.0239 31.3508 33.7876 31.0317 33.349C31.5635 33.8275 32.7067 34.2263 32.587 34.5587ZM32.5472 34.1067C32.946 34.0269 32.5339 33.7079 32.0553 33.1895C32.042 33.7345 32.1218 34.12 32.5472 34.1067Z" fill="white" stroke="#BD6B00" stroke-width="0.0664662"/>
<path fill-rule="evenodd" clip-rule="evenodd" d="M31.8954 33.7878C32.0682 33.615 31.7492 33.5352 31.3504 33.0832C31.2839 33.389 31.7226 33.9473 31.9087 33.7878H31.8954ZM33.7565 35.8083C33.9692 35.9413 34.1021 35.5026 33.8495 35.1171C33.7831 35.5425 33.5704 35.6488 33.7565 35.8083ZM29.2102 33.1098C28.7715 33.3757 28.067 32.3122 27.8809 31.8735C28.2664 32.3787 29.2899 32.8306 29.2102 33.1098Z" fill="white" stroke="#BD6B00" stroke-width="0.0664662"/>
<path fill-rule="evenodd" clip-rule="evenodd" d="M29.5961 33.7213C29.3435 33.9871 28.5725 33.256 28.3066 32.8838C28.7054 33.2427 29.7024 33.2826 29.5961 33.7213Z" fill="white" stroke="#BD6B00" stroke-width="0.0664662"/>
<path fill-rule="evenodd" clip-rule="evenodd" d="M30.0082 34.2796C29.9284 34.6518 28.8118 33.8143 28.5459 33.4155C29.0245 33.8808 30.0879 33.8409 30.0082 34.2796Z" fill="white" stroke="#BD6B00" stroke-width="0.0664662"/>
<path fill-rule="evenodd" clip-rule="evenodd" d="M29.8351 34.6918C29.6623 35.0241 28.745 34.1867 28.519 33.7613C29.0907 34.2398 29.9813 34.3595 29.8484 34.6918H29.8351ZM29.3698 33.0567C29.649 32.751 29.5293 32.6048 29.3166 32.1262C29.2103 32.6181 29.0375 32.8175 29.3698 33.0567ZM29.7553 33.6284C30.287 33.6549 29.7553 33.0169 29.6224 32.4718C29.6756 33.0833 29.4894 33.5752 29.7553 33.6284Z" fill="white" stroke="#BD6B00" stroke-width="0.0664662"/>
<path fill-rule="evenodd" clip-rule="evenodd" d="M30.0877 34.1334C30.4467 34.0536 30.3536 33.5352 30.0612 32.9104C30.1276 33.5884 29.7554 33.9739 30.0877 34.1334ZM29.9548 35.157C29.8219 35.5558 28.785 34.6252 28.6255 34.253C29.1572 34.705 30.0479 34.8512 29.9548 35.157Z" fill="white" stroke="#BD6B00" stroke-width="0.0664662"/>
<path fill-rule="evenodd" clip-rule="evenodd" d="M30.5798 35.7951C30.4336 36.1939 29.3436 35.3697 29.0112 34.9177C29.6626 35.4495 30.6596 35.3963 30.5798 35.7951Z" fill="white" stroke="#BD6B00" stroke-width="0.0664662"/>
<path fill-rule="evenodd" clip-rule="evenodd" d="M31.2177 36.4465C31.0449 37.0181 29.9017 36.1009 29.5693 35.6489C30.2872 36.2072 31.2975 36.0477 31.2177 36.4465ZM30.1542 34.9842C30.46 35.1304 30.5796 34.2664 30.4068 33.6416C30.4068 34.3063 29.782 34.8114 30.1409 34.9709L30.1542 34.9842Z" fill="white" stroke="#BD6B00" stroke-width="0.0664662"/>
<path fill-rule="evenodd" clip-rule="evenodd" d="M30.6728 35.6755C31.045 35.7819 30.9386 34.838 30.6063 34.2133C30.5664 34.838 30.3006 35.4097 30.6728 35.6755ZM31.3374 36.3269C31.7362 36.3402 31.4704 35.516 31.1247 35.0507C31.1779 35.6489 30.9918 36.2471 31.3374 36.3269ZM30.6063 36.6725C30.4734 36.8852 30.1809 36.4997 29.6758 36.2073C30.1278 36.3402 30.6595 36.4731 30.6063 36.6725ZM30.367 29.667C30.7658 29.3745 30.4601 28.8428 30.367 28.3376C30.2341 28.8162 29.9151 29.4543 30.367 29.667ZM30.367 30.3715C29.7688 30.305 29.8619 29.5606 29.8353 29.0821C30.0214 29.7334 30.5 29.8398 30.367 30.3848V30.3715ZM30.4468 30.2785C30.9386 30.2519 30.9121 29.6936 30.9386 29.1352C30.6861 29.6537 30.4069 29.7334 30.4468 30.2785Z" fill="white" stroke="#BD6B00" stroke-width="0.0664662"/>
<path fill-rule="evenodd" clip-rule="evenodd" d="M30.4332 30.9697C30.0344 31.0096 29.8483 30.6241 29.7686 30.0391C30.1275 30.5842 30.4465 30.4114 30.4332 30.9697ZM30.5661 30.9298C31.058 30.9963 30.9649 30.4247 30.9649 29.9993C30.8054 30.3981 30.4066 30.531 30.5661 30.9298Z" fill="white" stroke="#BD6B00" stroke-width="0.0664662"/>
<path fill-rule="evenodd" clip-rule="evenodd" d="M29.7954 30.6904C29.8353 31.0626 30.0746 31.7007 30.4601 31.5545C30.6063 31.1025 30.1144 31.0095 29.7954 30.6904Z" fill="white" stroke="#BD6B00" stroke-width="0.0664662"/>
<path fill-rule="evenodd" clip-rule="evenodd" d="M30.5664 31.5945C30.4069 31.2754 30.9652 31.1026 31.0716 30.6772C31.1381 31.2887 31.0849 31.6875 30.5664 31.6078V31.5945ZM28.9845 27.7128C29.2903 27.3938 29.0244 26.8621 28.9314 26.3569C28.7984 26.8355 28.599 27.4736 28.9845 27.7128ZM28.9845 28.3243C28.4528 28.3908 28.3199 27.3008 28.2534 26.8222C28.4395 27.4736 29.051 27.7527 28.9845 28.3376V28.3243ZM29.0909 28.3243C29.4631 28.1249 29.3833 27.6996 29.4897 27.3938C29.2504 27.7793 29.0111 27.8325 29.0909 28.3243Z" fill="white" stroke="#BD6B00" stroke-width="0.0664662"/>
<path fill-rule="evenodd" clip-rule="evenodd" d="M28.9713 29.0422C28.4263 29.082 28.094 27.8724 28.0674 27.3938C28.2402 28.0452 29.0511 28.3908 28.9846 29.0422H28.9713ZM29.091 29.0156C29.6227 28.8959 29.5562 28.5503 29.4765 28.0053C29.3037 28.5636 29.0112 28.444 29.091 29.0156Z" fill="white" stroke="#BD6B00" stroke-width="0.0664662"/>
<path fill-rule="evenodd" clip-rule="evenodd" d="M28.9712 29.7333C28.3597 29.8396 28.3996 28.8559 27.9077 28.1514C28.3331 28.6831 29.1041 29.3478 28.9712 29.7333ZM29.1041 29.6934C29.5827 29.72 29.6358 29.0154 29.6093 28.723C29.4896 29.0154 28.9446 29.2813 29.1174 29.7067L29.1041 29.6934Z" fill="white" stroke="#BD6B00" stroke-width="0.0664662"/>
<path fill-rule="evenodd" clip-rule="evenodd" d="M28.0142 28.9756C28.2401 29.7333 28.5725 30.491 28.9713 30.4378C29.1707 29.9992 28.5858 29.946 28.0142 28.9756Z" fill="white" stroke="#BD6B00" stroke-width="0.0664662"/>
<path fill-rule="evenodd" clip-rule="evenodd" d="M29.1172 30.3181C28.9576 29.9858 29.516 29.8263 29.6223 29.4009C29.6888 30.0124 29.6356 30.4112 29.1172 30.3181ZM28.1733 29.8396C28.5057 30.5175 28.6519 31.3018 29.1039 31.1822C29.2767 30.6504 28.5987 30.5441 28.1733 29.8396Z" fill="white" stroke="#BD6B00" stroke-width="0.0664662"/>
<path fill-rule="evenodd" clip-rule="evenodd" d="M29.1971 31.0626C28.9977 30.6904 29.556 30.5707 29.7022 30.0789C29.7687 30.7169 29.7022 31.1822 29.1971 31.0493V31.0626ZM30.1542 26.4764C30.4733 26.5562 30.8189 26.1972 30.6992 25.6522C30.327 25.732 30.1675 26.0776 30.1542 26.4764ZM29.104 26.1972C29.1306 26.3568 29.33 26.37 29.2636 26.1441C29.2139 25.9975 29.2139 25.8387 29.2636 25.6921C29.3276 25.4933 29.3276 25.2794 29.2636 25.0806C29.2104 24.9477 29.0243 25.0274 29.104 25.1338C29.1838 25.2534 29.1971 25.506 29.1306 25.6256C29.0509 25.7984 29.0775 26.0244 29.104 26.1972ZM32.1482 28.3242C32.0153 28.497 31.7627 28.3773 31.9621 28.1248C32.1216 27.9254 32.3609 27.7525 32.3609 27.5399C32.3875 27.274 32.5337 26.8752 32.6799 26.729C32.8262 26.5827 32.999 26.7821 32.8395 26.8885C32.6666 26.9948 32.547 27.4734 32.5603 27.6595C32.547 27.9254 32.2944 28.1248 32.1482 28.3242ZM31.7494 28.0184C31.6165 28.2045 31.4304 28.0849 31.5367 27.7924C31.6298 27.593 31.6431 27.3272 31.7494 27.1809C31.9089 26.955 32.1482 26.7688 32.2944 26.6226C32.4539 26.4897 32.5603 26.6226 32.4274 26.7556C32.2644 26.9183 32.1175 27.0964 31.9887 27.2873C31.8026 27.5797 31.8823 27.819 31.7494 28.0184ZM29.6624 27.0613C29.6491 27.3272 29.8618 27.3803 29.8485 27.0081C29.8485 26.6093 29.556 26.2371 29.7155 25.6389C29.8219 25.3465 29.8219 24.8014 29.7687 24.5223C29.7155 24.2298 29.5028 24.4159 29.5959 24.6419C29.6757 24.9078 29.5826 25.3863 29.5161 25.6389C29.3167 26.3568 29.6757 26.7024 29.6491 27.0613H29.6624ZM30.234 25.599C30.2074 25.8516 29.9947 25.8649 30.0612 25.5326C30.1143 25.2667 30.1143 25.054 30.0612 24.828C29.9814 24.5489 30.008 24.0703 30.0612 23.8709C30.1276 23.6582 30.327 23.7779 30.2473 23.9374C30.1545 24.1887 30.1406 24.4623 30.2074 24.7217C30.2871 24.9876 30.2739 25.3598 30.234 25.6123V25.599ZM28.1602 30.5308C28.2666 30.6505 28.4261 30.5707 28.2932 30.3979C28.1602 30.265 28.2001 30.2384 28.1203 30.0789C28.0406 29.8928 28.0539 29.7997 27.9608 29.6801C27.8678 29.5471 27.7481 29.6801 27.8279 29.7731C27.9342 29.9061 27.9077 29.9858 27.9608 30.1055C28.0938 30.3049 28.0539 30.4112 28.1602 30.5308ZM30.8721 33.801C31.0345 33.8908 31.1727 34.0188 31.2746 34.174C31.3765 34.3292 31.4391 34.5068 31.457 34.6916C31.4709 35.0226 31.5619 35.3458 31.7228 35.6354C31.457 35.569 31.324 35.1436 31.2841 34.7315C31.2443 34.3061 31.0183 34.1333 30.8853 33.801H30.8721ZM31.55 34.5853C31.776 34.9974 32.0817 35.1569 32.1083 35.4626C32.1349 35.8216 32.1615 35.8348 32.2545 36.1805C31.9887 36.114 31.9222 36.0874 31.8558 35.5557C31.8159 35.1835 31.5101 34.9309 31.55 34.5853Z" fill="white" stroke="#BD6B00" stroke-width="0.0664662"/>
<path fill-rule="evenodd" clip-rule="evenodd" d="M38.5422 38.4139C38.6751 38.6532 38.8081 39.0121 39.0739 38.9456C39.0739 38.7728 38.7948 38.6399 38.5422 38.4139ZM38.941 38.4937C39.4328 38.7064 39.8715 38.6532 39.938 38.9722C39.4594 39.0254 39.2733 38.8393 38.9277 38.4937H38.941ZM36.8008 36.8054C37.1311 37.0622 37.3652 37.4228 37.4654 37.829C37.5726 38.1965 37.7339 38.5459 37.944 38.8659C37.5983 38.6336 37.3481 38.2843 37.2395 37.8822C37.1464 37.4834 37.0268 37.1776 36.8008 36.8187V36.8054ZM37.2129 36.8054C37.5851 37.0979 37.9307 37.4435 38.0371 37.8556C38.1434 38.2411 38.2099 38.5335 38.4624 38.919C38.0636 38.6665 37.9174 38.2943 37.7978 37.8822C37.7047 37.4834 37.4654 37.1909 37.2129 36.8187V36.8054ZM38.4359 37.7758C38.4306 37.7426 38.4371 37.7086 38.454 37.6795C38.471 37.6505 38.4974 37.6281 38.5289 37.6163C38.6426 37.5762 38.7579 37.5407 38.8745 37.51C39.0075 37.4701 39.0872 37.5631 39.0872 37.6296V37.8955C39.0872 37.9885 39.0606 38.0018 38.9942 38.0151C38.9011 38.0284 38.7682 38.0417 38.6751 38.1082C38.5954 38.1613 38.5156 38.1215 38.4757 38.0417L38.4359 37.7758ZM39.8449 37.7758C39.8449 37.6961 39.8184 37.6296 39.7652 37.6163C39.6643 37.5745 39.5551 37.5564 39.4461 37.5631C39.3132 37.5631 39.2999 37.5897 39.2999 37.6429V37.9221C39.2999 38.0284 39.2999 38.0284 39.3531 38.055C39.4461 38.055 39.5924 38.055 39.6854 38.1347C39.7519 38.1746 39.8184 38.1347 39.8316 38.055L39.8449 37.7758Z" fill="white"/>
<path fill-rule="evenodd" clip-rule="evenodd" d="M45.6804 28.2047C45.8399 27.9388 46.0393 28.5769 46.7173 29.0422C47.023 29.2549 47.249 29.8265 47.249 30.1987C47.249 30.4646 47.2224 30.7171 47.249 30.9697C47.2623 31.1159 47.4351 31.4749 47.3155 31.5679C47.023 31.7806 46.6375 32.2857 46.4647 32.4586C46.3052 32.5915 46.1722 31.754 46.0659 31.3951C45.933 30.9963 45.9861 30.5044 45.6405 30.1455C45.4012 29.8797 44.7897 29.6404 44.8429 29.534L45.6804 28.2047Z" fill="white" stroke="#BD6B00" stroke-width="0.0664662"/>
<path fill-rule="evenodd" clip-rule="evenodd" d="M45.7201 30.2518C45.7729 30.1263 45.8447 30.0098 45.9328 29.9061C46.0176 29.8011 46.1273 29.7188 46.2519 29.6669C46.3743 29.6305 46.4846 29.5616 46.5709 29.4675C46.6218 29.4104 46.6582 29.3421 46.6773 29.2681C46.6924 29.1801 46.6924 29.0902 46.6773 29.0022L46.7171 29.0421C47.0229 29.2548 47.2489 29.8264 47.2489 30.1986C47.253 30.3005 47.253 30.4025 47.2489 30.5043C47.2223 30.5708 47.209 30.6373 47.1691 30.6771L47.0229 30.7835L46.664 30.8765C46.5296 30.937 46.4112 31.028 46.3183 31.1424C46.2216 31.2449 46.1409 31.3614 46.0791 31.488L46.0525 31.3817C45.9461 31.0228 45.9594 30.5974 45.7068 30.2518H45.7201Z" fill="#BF0000" stroke="#BD6B00" stroke-width="0.0664662"/>
<path d="M46.6777 28.989C46.7441 29.4277 46.4916 29.5872 46.2523 29.667C46.013 29.76 45.8136 30.0126 45.7206 30.2519M47.2759 30.4513C47.1695 30.8501 46.9037 30.7969 46.6644 30.8767C46.4251 30.9697 46.1725 31.2755 46.0662 31.5147" stroke="#BD6B00" stroke-width="0.0664662"/>
<path fill-rule="evenodd" clip-rule="evenodd" d="M45.9062 27.9386L45.7733 27.8589L43.4204 31.8336L43.5533 31.9133L45.9062 27.9254V27.9386Z" fill="white" stroke="#BD6B00" stroke-width="0.0664662"/>
<path fill-rule="evenodd" clip-rule="evenodd" d="M45.6538 27.7792C45.6538 27.8497 45.6818 27.9173 45.7317 27.9672C45.7815 28.017 45.8492 28.045 45.9197 28.045C45.9902 28.045 46.0578 28.017 46.1077 27.9672C46.1575 27.9173 46.1855 27.8497 46.1855 27.7792C46.1855 27.7087 46.1575 27.641 46.1077 27.5912C46.0578 27.5413 45.9902 27.5133 45.9197 27.5133C45.8492 27.5133 45.7815 27.5413 45.7317 27.5912C45.6818 27.641 45.6538 27.7087 45.6538 27.7792ZM43.6332 24.5888H42.6761V24.8015H43.6332V24.5888ZM43.6332 25.0009H42.6761V26.8353H43.6332V25.0009ZM43.6864 24.3362H42.623C42.5964 23.9773 42.9553 23.5918 43.1547 23.5918C43.3674 23.6051 43.6997 23.9906 43.6864 24.3362Z" fill="white" stroke="#BD6B00" stroke-width="0.0664662"/>
<path fill-rule="evenodd" clip-rule="evenodd" d="M40.9879 24.1237C41.1873 24.2034 41.3468 24.4294 41.4399 24.6953C41.5329 24.9612 41.5728 25.2669 41.5196 25.5062C41.5196 25.5992 41.4798 25.6524 41.4532 25.7056C41.4266 25.7455 41.4 25.7721 41.3734 25.7721C41.3335 25.7721 41.2937 25.7721 41.2804 25.7322L41.2538 25.6258C41.2671 25.36 41.2671 25.1207 41.2139 24.908C41.1548 24.6718 41.0134 24.4644 40.8151 24.3231C40.7752 24.2965 40.7619 24.2566 40.7486 24.23C40.7491 24.195 40.7635 24.1615 40.7885 24.137C40.8417 24.0971 40.9214 24.0838 40.9879 24.1237ZM40.9613 24.1769C40.9082 24.1503 40.855 24.1769 40.8284 24.1902L40.8151 24.2167C40.8151 24.23 40.8151 24.2433 40.855 24.2699C41.0592 24.4197 41.2049 24.6359 41.2671 24.8814C41.3222 25.1255 41.3357 25.3772 41.3069 25.6258C41.3069 25.6546 41.3163 25.6826 41.3335 25.7056C41.3335 25.7056 41.3335 25.7189 41.3601 25.7056C41.3601 25.7056 41.3867 25.7056 41.4133 25.6657C41.4396 25.6158 41.4575 25.5619 41.4665 25.5062C41.5063 25.2669 41.4665 24.9745 41.3734 24.7086C41.2804 24.4693 41.1341 24.2566 40.9746 24.1769H40.9613Z" fill="#BD6B00"/>
<path fill-rule="evenodd" clip-rule="evenodd" d="M40.6423 24.3761C40.8417 24.4692 40.9746 24.6819 41.0411 24.9345C41.1117 25.1898 41.1253 25.4576 41.081 25.7188C41.0544 25.8916 40.948 25.9846 40.8683 25.9846C40.8284 25.9979 40.7885 25.9846 40.7619 25.9447C40.7353 25.9049 40.722 25.865 40.7353 25.8118C40.7885 25.5991 40.8018 25.3598 40.7752 25.1339C40.7353 24.9079 40.6423 24.7085 40.4828 24.5888C40.4429 24.5489 40.4163 24.5224 40.4163 24.4825C40.4151 24.4681 40.4168 24.4536 40.4214 24.4399C40.4259 24.4262 40.4333 24.4135 40.4429 24.4027C40.496 24.3628 40.5758 24.3496 40.6423 24.3761ZM40.6157 24.4426C40.5625 24.416 40.5093 24.4293 40.4828 24.4426L40.4695 24.4825L40.5093 24.5357C40.5986 24.6072 40.6727 24.6957 40.7275 24.7961C40.7823 24.8965 40.8166 25.0068 40.8284 25.1206C40.8683 25.3598 40.8417 25.6124 40.8018 25.8118C40.7885 25.865 40.8018 25.8916 40.8018 25.9182L40.8683 25.9314C40.9081 25.9314 41.0012 25.865 41.0278 25.7055C41.0677 25.4795 41.0544 25.187 40.9879 24.9477C40.9214 24.7085 40.7885 24.5091 40.6157 24.4426Z" fill="#BD6B00"/>
<path fill-rule="evenodd" clip-rule="evenodd" d="M43.6866 28.3242H42.6231V29.7865H43.6866V28.3242ZM43.6201 30.6372H42.5965V30.9563H43.6201V30.6372ZM43.6467 31.1823H42.5832V32.3388H43.6467V31.1823ZM43.7265 32.5781H42.5699V33.2294H43.7265V32.5781ZM43.5802 30.3714H42.6497L42.4636 30.0523H43.7397L43.5802 30.3714ZM42.3307 29.2282L42.3174 28.4306H41.6793C41.9536 28.6441 42.1762 28.9167 42.3307 29.2282Z" fill="white" stroke="#BD6B00" stroke-width="0.0664662"/>
<path fill-rule="evenodd" clip-rule="evenodd" d="M43.5137 29.5604C43.5137 29.7332 43.3143 29.6668 43.3143 29.5737V28.8293C43.3143 28.6963 42.9952 28.7229 42.9952 28.816V29.6136C42.9952 29.7465 42.7692 29.7332 42.7825 29.6136V28.6831C42.7825 28.3906 43.5137 28.4039 43.5137 28.6698V29.5604ZM43.5137 31.3284H42.756V32.2589H43.5137V31.3284Z" stroke="#BD6B00" stroke-width="0.0664662"/>
<path fill-rule="evenodd" clip-rule="evenodd" d="M43.0351 31.7273H42.7692V31.8603H43.0351V31.7273ZM43.5003 31.7273H43.2345V31.8603H43.5003V31.7273ZM43.2345 31.3285H43.0351V31.7273H43.2345V31.3285ZM43.2345 31.8603H43.0351V32.2723H43.2345V31.8603ZM47.4484 21.8903C47.3953 22.6214 47.6345 23.0335 48.02 22.9671C48.1264 22.5683 47.8871 22.2891 47.4484 21.8903ZM48.3125 23.5254C48.6581 23.3526 48.4055 21.9967 48.2726 21.425C48.1796 22.1562 48.0067 23.1931 48.3125 23.5254Z" fill="white"/>
<path d="M43.0351 31.7273H42.7692V31.8603H43.0351M43.0351 31.7273V31.8603M43.0351 31.7273V31.3285H43.2345V31.7273M43.0351 31.7273H43.2345M43.0351 31.8603H43.2345M43.0351 31.8603V32.2723H43.2345V31.8603M43.2345 31.7273H43.5003V31.8603H43.2345M43.2345 31.7273V31.8603M47.4484 21.8903C47.3953 22.6214 47.6345 23.0335 48.02 22.9671C48.1264 22.5683 47.8871 22.2891 47.4484 21.8903ZM48.3125 23.5254C48.6581 23.3526 48.4055 21.9967 48.2726 21.425C48.1796 22.1562 48.0067 23.1931 48.3125 23.5254Z" stroke="#BD6B00" stroke-width="0.0664662"/>
<path fill-rule="evenodd" clip-rule="evenodd" d="M48.1929 23.5918C47.608 23.7912 47.1295 23.1664 46.9833 22.4353C47.4618 23.0999 48.2461 23.0999 48.1796 23.5918H48.1929ZM48.6316 24.2697C49.0836 24.1501 48.8177 22.7144 48.7247 22.1428C48.6316 22.741 48.3126 24.0703 48.6316 24.2697ZM48.4721 24.2299C48.4455 23.738 47.9537 23.8709 47.608 23.6051C47.6745 23.8709 47.8739 24.2963 48.4721 24.2299ZM49.0304 24.8945C49.4824 24.7616 49.2165 23.2196 49.2431 22.5815C49.1102 23.1398 48.6848 24.7483 49.0304 24.8945ZM48.8177 24.8281C48.4455 24.9477 47.9537 24.6951 47.9138 24.2565C48.2461 24.4824 48.7513 24.3096 48.8177 24.8281Z" fill="white" stroke="#BD6B00" stroke-width="0.0664662"/>
<path fill-rule="evenodd" clip-rule="evenodd" d="M49.376 25.5726C49.8013 25.6125 49.6152 24.2965 49.6152 23.0735C49.4557 24.2167 49.017 25.2669 49.376 25.5726Z" fill="white" stroke="#BD6B00" stroke-width="0.0664662"/>
<path fill-rule="evenodd" clip-rule="evenodd" d="M49.2163 25.5195C48.9239 25.6524 48.4054 25.4264 48.2592 24.9346C48.7909 25.1605 49.1365 24.9346 49.2163 25.5195ZM45.8132 22.5684C45.893 23.2197 46.1589 23.5919 46.5444 23.5255C46.6507 23.1267 46.3317 22.8608 45.8132 22.5684ZM46.8501 24.2167C46.1987 24.3098 45.9728 23.8179 45.5208 23.1666C46.1456 23.6185 46.8767 23.6983 46.8501 24.23V24.2167Z" fill="white" stroke="#BD6B00" stroke-width="0.0664662"/>
<path fill-rule="evenodd" clip-rule="evenodd" d="M47.0496 24.1502C47.3952 23.7248 47.0496 23.1798 46.7837 22.7278C46.8369 23.4057 46.6109 23.7912 47.0496 24.1502ZM47.1825 24.8547C47.2357 24.4293 46.5178 24.3363 46.1988 24.1103C46.3184 24.3496 46.4647 25.0009 47.1958 24.8547H47.1825Z" fill="white" stroke="#BD6B00" stroke-width="0.0664662"/>
<path fill-rule="evenodd" clip-rule="evenodd" d="M47.3424 24.8548C47.8342 24.8017 47.6348 23.9642 47.2759 23.5122C47.4221 24.1503 47.0101 24.589 47.3424 24.8548Z" fill="white" stroke="#BD6B00" stroke-width="0.0664662"/>
<path fill-rule="evenodd" clip-rule="evenodd" d="M47.7145 25.5591C48.2729 25.2933 47.9139 24.602 47.7145 24.1899C47.7943 24.735 47.3423 25.1471 47.7145 25.5459V25.5591Z" fill="white" stroke="#BD6B00" stroke-width="0.0664662"/>
<path fill-rule="evenodd" clip-rule="evenodd" d="M47.6079 25.4796C47.3154 25.8784 46.7438 25.3732 46.6242 24.7883C47.116 25.2004 47.4882 25.134 47.6079 25.4929V25.4796ZM48.884 28.1781C48.9372 27.6065 48.5118 26.5829 48.8176 26.0246C48.8574 25.9448 48.7245 25.7454 48.6314 25.8651C48.4985 26.0645 48.3656 26.6228 48.2991 26.4101C48.2459 26.1841 48.2327 25.7986 48.0333 25.7189C47.9003 25.679 47.7275 25.6391 47.7807 25.8518C47.8339 26.0379 47.9402 26.3038 47.8206 26.3171C47.7541 26.3171 47.5547 26.0512 47.3819 25.9183C47.249 25.8119 47.0363 25.998 47.249 26.1575C47.887 26.6893 48.5118 26.9418 48.884 28.1781ZM50.0405 36.7523C50.1203 36.7523 50.2133 36.7124 50.1203 36.832C49.3626 37.7625 49.1499 38.0284 48.0465 37.8955C46.9432 37.7492 46.6773 37.4435 45.893 37.0048C45.666 36.8854 45.4175 36.8121 45.1619 36.7893C44.9064 36.7665 44.6488 36.7945 44.4042 36.8719C44.1915 36.9384 44.0586 36.9384 44.2181 36.7788C44.3776 36.6326 44.5504 36.4199 44.7498 36.2737C45.2457 35.942 45.8501 35.8135 46.4381 35.9148C47.2357 36.0477 47.9136 36.5661 48.7245 36.7655C49.1588 36.8533 49.6062 36.8533 50.0405 36.7655V36.7523ZM43.6864 38.4139C43.5534 38.4405 43.4604 38.7064 43.3806 38.5336C43.2743 38.2278 43.354 38.0018 43.487 38.0151C43.6465 38.055 43.8991 38.4139 43.6864 38.4139Z" fill="white" stroke="#BD6B00" stroke-width="0.0664662"/>
<path fill-rule="evenodd" clip-rule="evenodd" d="M50.5589 27.7394C50.7185 27.5533 50.6786 27.5002 50.426 27.4869C50.2399 27.4869 49.8677 27.6198 49.7215 27.5002C49.5885 27.4071 49.655 27.0083 49.5885 26.8355C49.5619 26.7159 49.4955 26.5696 49.3227 26.8089C48.8441 27.5799 48.2592 28.5105 47.9933 29.4144C47.8604 29.9195 47.9933 30.7171 48.4453 31.2489C48.4453 30.7969 48.6048 30.4912 48.8042 30.1056C49.0701 29.6138 50.0139 28.2446 50.5589 27.7262V27.7394Z" fill="white"/>
<path fill-rule="evenodd" clip-rule="evenodd" d="M48.5785 31.7804C48.0468 31.7804 47.9537 31.0759 47.9537 30.8765C48.2196 30.9296 48.6716 31.3683 48.5785 31.7804ZM43.9923 38.6796C43.6201 38.7594 43.6334 37.8554 44.0189 37.4699C43.8461 38.0548 44.2848 38.5866 44.0056 38.6663L43.9923 38.6796ZM44.1519 38.6663C44.1253 39.0917 45.2153 38.6131 45.4812 38.2675C44.8431 38.5467 44.1784 38.3207 44.1519 38.6663ZM44.6171 38.0548C44.5772 38.4669 45.5477 38.0947 45.8534 37.7757C45.202 37.9884 44.657 37.7092 44.6171 38.0415V38.0548ZM44.4443 38.108C44.0588 38.201 44.1253 37.2572 44.4975 36.9382C44.3114 37.563 44.7368 38.0149 44.4443 38.108ZM44.8431 37.5364C44.4576 37.6294 44.6836 36.8185 44.9627 36.4995C44.9096 37.0844 45.0957 37.4965 44.8298 37.5364H44.8431ZM45.0425 37.5364C45.0026 37.9618 45.7603 37.6427 46.0528 37.2306C45.4147 37.43 45.0824 37.1908 45.0425 37.5364ZM45.2419 37.2041C45.0026 37.0312 45.2552 36.566 45.7338 36.5926C45.6806 36.8717 45.5211 37.3769 45.2419 37.2041ZM43.3808 39.1582C43.3676 39.5835 44.4443 39.3709 44.7899 38.9189C44.0987 39.0518 43.4207 38.8125 43.3941 39.1582H43.3808ZM47.6879 38.3872C47.648 38.8125 48.8311 38.334 49.1235 37.9352C48.4988 38.1479 47.7277 38.0415 47.6879 38.3872ZM46.97 38.56C46.7175 38.3871 47.2226 37.9352 47.6347 37.8288C47.5815 38.108 47.2359 38.7328 46.97 38.5733V38.56ZM46.8903 38.8657C46.8637 39.2512 48.1531 39.0385 48.4855 38.6796C47.3821 38.879 46.9301 38.5334 46.8903 38.8657Z" fill="white" stroke="#BD6B00" stroke-width="0.0664662"/>
<path fill-rule="evenodd" clip-rule="evenodd" d="M46.2788 39.1183C46.1459 39.4772 47.3821 39.3841 47.8208 39.1847C47.1163 39.1847 46.3851 38.8657 46.2788 39.1183Z" fill="white" stroke="#BD6B00" stroke-width="0.0664662"/>
<path fill-rule="evenodd" clip-rule="evenodd" d="M45.7073 39.3843C45.5743 39.7033 46.7176 39.7033 47.2759 39.5172C46.5315 39.5172 45.8402 39.0652 45.7073 39.3843ZM44.8698 39.5571C44.6571 39.9426 45.8801 39.9692 46.2656 39.7831C45.5743 39.69 45.0426 39.2513 44.8698 39.5571ZM46.2922 38.9057C46.6777 39.145 46.6511 38.4272 46.9568 37.9353C46.4783 38.374 46.0263 38.6797 46.2922 38.9057Z" fill="white" stroke="#BD6B00" stroke-width="0.0664662"/>
<path fill-rule="evenodd" clip-rule="evenodd" d="M45.6006 39.1716C45.9197 39.4508 46.1855 38.4671 46.478 37.9088C45.9994 38.4405 45.3082 38.9323 45.6006 39.1583V39.1716ZM44.6967 39.4375C44.9625 39.7565 45.7601 38.507 46.0526 37.8423C45.6139 38.3607 44.484 39.1716 44.6967 39.4375ZM45.4677 40.3946C45.6006 40.8732 47.6212 39.9426 47.8605 39.4508C46.6907 40.0623 45.4411 39.9293 45.4677 40.3813V40.3946ZM51.9415 30.5842C51.9947 30.5177 52.1276 30.5842 52.101 30.7304C52.0611 30.9298 51.7687 31.9534 51.2635 32.299C50.9046 32.5649 49.0037 32.977 48.1529 33.1631C47.6744 33.2561 47.2889 33.4954 46.9698 33.8676C47.0791 33.4265 47.2122 32.9916 47.3686 32.5649C47.5281 32.1661 47.9535 31.7407 48.4055 31.7274C49.2164 31.6875 50.2798 31.621 51.0641 31.2887C51.4194 31.1389 51.7272 30.8954 51.9548 30.5842H51.9415Z" fill="white" stroke="#BD6B00" stroke-width="0.0664662"/>
<path fill-rule="evenodd" clip-rule="evenodd" d="M47.2489 34.6386C46.983 34.8247 46.7039 34.1467 47.0229 33.4954C47.0362 34.1201 47.528 34.3328 47.2489 34.6386Z" fill="white" stroke="#BD6B00" stroke-width="0.0664662"/>
<path fill-rule="evenodd" clip-rule="evenodd" d="M46.9964 35.2634C46.6375 35.3698 46.5311 34.7317 46.7571 34.2266C46.7172 34.7716 47.3287 35.1039 46.9964 35.2634Z" fill="white" stroke="#BD6B00" stroke-width="0.0664662"/>
<path fill-rule="evenodd" clip-rule="evenodd" d="M46.7174 35.7685C46.3718 35.9413 46.2521 35.29 46.4914 34.8247C46.4648 35.4229 46.9832 35.609 46.7174 35.7552V35.7685Z" fill="white" stroke="#BD6B00" stroke-width="0.0664662"/>
<path fill-rule="evenodd" clip-rule="evenodd" d="M46.8638 35.8084C46.9967 36.2072 47.7943 35.4494 47.9272 35.0374C47.4354 35.5292 46.7707 35.4627 46.8638 35.7951V35.8084Z" fill="white" stroke="#BD6B00" stroke-width="0.0664662"/>
<path fill-rule="evenodd" clip-rule="evenodd" d="M47.2225 35.1836C47.382 35.5824 48.379 34.5189 48.605 34.0271C48.1131 34.5189 47.1161 34.8912 47.2225 35.1703V35.1836Z" fill="white" stroke="#BD6B00" stroke-width="0.0664662"/>
<path fill-rule="evenodd" clip-rule="evenodd" d="M47.4217 34.5587C47.5813 35.0239 48.658 33.7876 48.9771 33.349C48.4453 33.8275 47.3021 34.2263 47.4217 34.5587ZM47.4616 34.1067C47.0628 34.0269 47.4749 33.7079 47.9535 33.1895C47.9668 33.7345 47.887 34.12 47.4616 34.1067Z" fill="white" stroke="#BD6B00" stroke-width="0.0664662"/>
<path fill-rule="evenodd" clip-rule="evenodd" d="M48.1134 33.7878C47.9406 33.615 48.2596 33.5352 48.6584 33.0832C48.7249 33.389 48.2862 33.9473 48.1001 33.7878H48.1134ZM46.2523 35.8083C46.0396 35.9413 45.9067 35.5026 46.1593 35.1171C46.2257 35.5425 46.4384 35.6488 46.2523 35.8083ZM50.7986 33.1098C51.2373 33.3757 51.9418 32.3122 52.1279 31.8735C51.7424 32.3787 50.7188 32.8306 50.7986 33.1098Z" fill="white" stroke="#BD6B00" stroke-width="0.0664662"/>
<path fill-rule="evenodd" clip-rule="evenodd" d="M50.4127 33.7213C50.6653 33.9871 51.4363 33.256 51.7021 32.8838C51.3034 33.2427 50.3064 33.2826 50.4127 33.7213Z" fill="white" stroke="#BD6B00" stroke-width="0.0664662"/>
<path fill-rule="evenodd" clip-rule="evenodd" d="M50.0006 34.2796C50.0804 34.6518 51.197 33.8143 51.4629 33.4155C50.9843 33.8808 49.9209 33.8409 50.0006 34.2796Z" fill="white" stroke="#BD6B00" stroke-width="0.0664662"/>
<path fill-rule="evenodd" clip-rule="evenodd" d="M50.1737 34.6918C50.3465 35.0241 51.2638 34.1867 51.4897 33.7613C50.9181 34.2398 50.0275 34.3595 50.1604 34.6918H50.1737ZM50.639 33.0567C50.3598 32.751 50.4795 32.6048 50.6922 32.1262C50.7985 32.6181 50.9713 32.8175 50.639 33.0567ZM50.2535 33.6284C49.7217 33.6549 50.2535 33.0169 50.3864 32.4718C50.3332 33.0833 50.5193 33.5752 50.2535 33.6284Z" fill="white" stroke="#BD6B00" stroke-width="0.0664662"/>
<path fill-rule="evenodd" clip-rule="evenodd" d="M49.921 34.1334C49.5621 34.0536 49.6552 33.5352 49.9476 32.9104C49.8812 33.5884 50.2534 33.9739 49.921 34.1334ZM50.054 35.157C50.1869 35.5558 51.2238 34.6252 51.3833 34.253C50.8516 34.705 49.9609 34.8512 50.054 35.157Z" fill="white" stroke="#BD6B00" stroke-width="0.0664662"/>
<path fill-rule="evenodd" clip-rule="evenodd" d="M49.429 35.7951C49.5752 36.1939 50.6652 35.3697 50.9976 34.9177C50.3462 35.4495 49.3492 35.3963 49.429 35.7951Z" fill="white" stroke="#BD6B00" stroke-width="0.0664662"/>
<path fill-rule="evenodd" clip-rule="evenodd" d="M48.7911 36.4465C48.9639 37.0181 50.1071 36.1009 50.4395 35.6489C49.7216 36.2072 48.7113 36.0477 48.7911 36.4465ZM49.8546 34.9842C49.5488 35.1304 49.4292 34.2664 49.602 33.6416C49.602 34.3063 50.2268 34.8114 49.8678 34.9709L49.8546 34.9842Z" fill="white" stroke="#BD6B00" stroke-width="0.0664662"/>
<path fill-rule="evenodd" clip-rule="evenodd" d="M49.336 35.6755C48.9638 35.7819 49.0701 34.838 49.4025 34.2133C49.4424 34.838 49.7082 35.4097 49.336 35.6755ZM48.6714 36.3269C48.2726 36.3402 48.5384 35.516 48.884 35.0507C48.8309 35.6489 49.017 36.2471 48.6714 36.3269ZM49.4025 36.6725C49.5354 36.8852 49.8279 36.4997 50.333 36.2073C49.881 36.3402 49.3493 36.4731 49.4025 36.6725ZM49.6418 29.667C49.243 29.3745 49.5487 28.8428 49.6418 28.3376C49.7747 28.8162 50.0937 29.4543 49.6418 29.667ZM49.6418 30.3715C50.24 30.305 50.1469 29.5606 50.1735 29.0821C49.9874 29.7334 49.5088 29.8398 49.6418 30.3848V30.3715ZM49.562 30.2785C49.0701 30.2519 49.0967 29.6936 49.0701 29.1352C49.3227 29.6537 49.6019 29.7334 49.562 30.2785Z" fill="white" stroke="#BD6B00" stroke-width="0.0664662"/>
<path fill-rule="evenodd" clip-rule="evenodd" d="M49.5756 30.9697C49.9744 31.0096 50.1605 30.6241 50.2402 30.0391C49.8813 30.5842 49.5623 30.4114 49.5756 30.9697ZM49.4426 30.9298C48.9508 30.9963 49.0438 30.4247 49.0438 29.9993C49.2034 30.3981 49.6022 30.531 49.4426 30.9298Z" fill="white" stroke="#BD6B00" stroke-width="0.0664662"/>
<path fill-rule="evenodd" clip-rule="evenodd" d="M50.2134 30.6904C50.1735 31.0626 49.9342 31.7007 49.5487 31.5545C49.4025 31.1025 49.8943 31.0095 50.2134 30.6904Z" fill="white" stroke="#BD6B00" stroke-width="0.0664662"/>
<path fill-rule="evenodd" clip-rule="evenodd" d="M49.4423 31.5945C49.6019 31.2754 49.0435 31.1026 48.9372 30.6772C48.8707 31.2887 48.9239 31.6875 49.4423 31.6078V31.5945ZM51.0242 27.7128C50.7185 27.3938 50.9844 26.8621 51.0774 26.3569C51.2103 26.8355 51.4097 27.4736 51.0242 27.7128ZM51.0242 28.3243C51.556 28.3908 51.6889 27.3008 51.7554 26.8222C51.5693 27.4736 50.9578 27.7527 51.0242 28.3376V28.3243ZM50.9179 28.3243C50.5457 28.1249 50.6254 27.6996 50.5191 27.3938C50.7584 27.7793 50.9977 27.8325 50.9179 28.3243Z" fill="white" stroke="#BD6B00" stroke-width="0.0664662"/>
<path fill-rule="evenodd" clip-rule="evenodd" d="M51.0375 29.0422C51.5825 29.082 51.9148 27.8724 51.9414 27.3938C51.7686 28.0452 50.9577 28.3908 51.0242 29.0422H51.0375ZM50.9178 29.0156C50.3861 28.8959 50.4526 28.5503 50.5323 28.0053C50.7051 28.5636 50.9976 28.444 50.9178 29.0156Z" fill="white" stroke="#BD6B00" stroke-width="0.0664662"/>
<path fill-rule="evenodd" clip-rule="evenodd" d="M51.0376 29.7333C51.6491 29.8396 51.6092 28.8559 52.1011 28.1514C51.6757 28.6831 50.9047 29.3478 51.0376 29.7333ZM50.9047 29.6934C50.4261 29.72 50.373 29.0154 50.3995 28.723C50.5192 29.0154 51.0642 29.2813 50.8914 29.7067L50.9047 29.6934Z" fill="white" stroke="#BD6B00" stroke-width="0.0664662"/>
<path fill-rule="evenodd" clip-rule="evenodd" d="M51.9946 28.9756C51.7686 29.7333 51.4363 30.491 51.0375 30.4378C50.8381 29.9992 51.423 29.946 51.9946 28.9756Z" fill="white" stroke="#BD6B00" stroke-width="0.0664662"/>
<path fill-rule="evenodd" clip-rule="evenodd" d="M50.8916 30.3181C51.0511 29.9858 50.4928 29.8263 50.3865 29.4009C50.32 30.0124 50.3732 30.4112 50.8916 30.3181ZM51.8354 29.8396C51.5031 30.5175 51.3569 31.3018 50.9049 31.1822C50.7321 30.6504 51.4101 30.5441 51.8354 29.8396Z" fill="white" stroke="#BD6B00" stroke-width="0.0664662"/>
<path fill-rule="evenodd" clip-rule="evenodd" d="M50.8117 31.0626C51.0111 30.6904 50.4528 30.5707 50.3065 30.0789C50.2401 30.7169 50.3065 31.1822 50.8117 31.0493V31.0626ZM49.8546 26.4764C49.5355 26.5562 49.1899 26.1972 49.3095 25.6522C49.6818 25.732 49.8413 26.0776 49.8546 26.4764ZM50.9047 26.1972C50.8782 26.3568 50.6788 26.37 50.7452 26.1441C50.7949 25.9975 50.7949 25.8387 50.7452 25.6921C50.6812 25.4933 50.6812 25.2794 50.7452 25.0806C50.7984 24.9477 50.9845 25.0274 50.9047 25.1338C50.825 25.2534 50.8117 25.506 50.8782 25.6256C50.9579 25.7984 50.9313 26.0244 50.9047 26.1972ZM47.8606 28.3242C47.9935 28.497 48.2461 28.3773 48.0467 28.1248C47.8872 27.9254 47.6479 27.7525 47.6479 27.5399C47.6213 27.274 47.4751 26.8752 47.3289 26.729C47.1826 26.5827 47.0098 26.7821 47.1693 26.8885C47.3421 26.9948 47.4618 27.4734 47.4485 27.6595C47.4618 27.9254 47.7144 28.1248 47.8606 28.3242ZM48.2594 28.0184C48.3923 28.2045 48.5784 28.0849 48.4721 27.7924C48.379 27.593 48.3657 27.3272 48.2594 27.1809C48.0999 26.955 47.8606 26.7688 47.7144 26.6226C47.5548 26.4897 47.4485 26.6226 47.5814 26.7556C47.7444 26.9183 47.8913 27.0964 48.0201 27.2873C48.2062 27.5797 48.1265 27.819 48.2594 28.0184ZM50.3464 27.0613C50.3597 27.3272 50.147 27.3803 50.1603 27.0081C50.1603 26.6093 50.4528 26.2371 50.2932 25.6389C50.1869 25.3465 50.1869 24.8014 50.2401 24.5223C50.2932 24.2298 50.5059 24.4159 50.4129 24.6419C50.3331 24.9078 50.4262 25.3863 50.4926 25.6389C50.692 26.3568 50.3331 26.7024 50.3597 27.0613H50.3464ZM49.7748 25.599C49.8014 25.8516 50.0141 25.8649 49.9476 25.5326C49.8945 25.2667 49.8945 25.054 49.9476 24.828C50.0274 24.5489 50.0008 24.0703 49.9476 23.8709C49.8812 23.6582 49.6818 23.7779 49.7615 23.9374C49.8543 24.1887 49.8682 24.4623 49.8014 24.7217C49.7216 24.9876 49.7349 25.3598 49.7748 25.6123V25.599ZM51.8486 30.5308C51.7422 30.6505 51.5827 30.5707 51.7156 30.3979C51.8486 30.265 51.8087 30.2384 51.8884 30.0789C51.9682 29.8928 51.9549 29.7997 52.048 29.6801C52.141 29.5471 52.2607 29.6801 52.1809 29.7731C52.0745 29.9061 52.1011 29.9858 52.048 30.1055C51.915 30.3049 51.9549 30.4112 51.8486 30.5308ZM49.1367 33.801C48.9743 33.8908 48.8361 34.0188 48.7342 34.174C48.6323 34.3292 48.5697 34.5068 48.5518 34.6916C48.5379 35.0226 48.4469 35.3458 48.286 35.6354C48.5518 35.569 48.6848 35.1436 48.7246 34.7315C48.7645 34.3061 48.9905 34.1333 49.1234 33.801H49.1367ZM48.4588 34.5853C48.2328 34.9974 47.9271 35.1569 47.9005 35.4626C47.8739 35.8216 47.8473 35.8348 47.7542 36.1805C48.0201 36.114 48.0866 36.0874 48.153 35.5557C48.1929 35.1835 48.4987 34.9309 48.4588 34.5853Z" fill="white" stroke="#BD6B00" stroke-width="0.0664662"/>
<path fill-rule="evenodd" clip-rule="evenodd" d="M41.4666 38.4139C41.3337 38.6532 41.2007 39.0121 40.9349 38.9456C40.9349 38.7728 41.214 38.6399 41.4666 38.4139ZM41.0678 38.4937C40.5759 38.7064 40.1373 38.6532 40.0708 38.9722C40.5494 39.0254 40.7355 38.8393 41.0811 38.4937H41.0678ZM43.208 36.8054C42.8777 37.0622 42.6435 37.4228 42.5433 37.829C42.4362 38.1965 42.2749 38.5459 42.0648 38.8659C42.4105 38.6336 42.6607 38.2843 42.7693 37.8822C42.8624 37.4834 42.982 37.1776 43.208 36.8187V36.8054ZM42.7959 36.8054C42.4237 37.0979 42.0781 37.4435 41.9717 37.8556C41.8654 38.2411 41.7989 38.5335 41.5464 38.919C41.9451 38.6665 42.0914 38.2943 42.211 37.8822C42.3041 37.4834 42.5433 37.1909 42.7959 36.8187V36.8054ZM41.5729 37.7758C41.5781 37.7426 41.5717 37.7086 41.5548 37.6795C41.5378 37.6505 41.5114 37.6281 41.4799 37.6163C41.3662 37.5762 41.2509 37.5407 41.1343 37.51C41.0013 37.4701 40.9216 37.5631 40.9216 37.6296V37.8955C40.9216 37.9885 40.9482 38.0018 41.0146 38.0151C41.1077 38.0284 41.2406 38.0417 41.3337 38.1082C41.4134 38.1613 41.4932 38.1215 41.5331 38.0417L41.5729 37.7758ZM40.1639 37.7758C40.1639 37.6961 40.1904 37.6296 40.2436 37.6163C40.3445 37.5745 40.4536 37.5564 40.5627 37.5631C40.6956 37.5631 40.7089 37.5897 40.7089 37.6429V37.9221C40.7089 38.0284 40.7089 38.0284 40.6557 38.055C40.5626 38.055 40.4164 38.055 40.3234 38.1347C40.2569 38.1746 40.1904 38.1347 40.1771 38.055L40.1639 37.7758Z" fill="white"/>
<path fill-rule="evenodd" clip-rule="evenodd" d="M43.7929 41.5111C43.7929 41.6706 43.8195 41.8036 43.9258 41.9232C43.3177 41.7395 42.6627 41.7917 42.0913 42.0694C41.8521 42.1758 41.5596 41.9365 41.8388 41.7105C42.2376 41.4048 43.1282 41.5776 43.7929 41.5111ZM36.1492 41.5111C36.1608 41.6463 36.1427 41.7824 36.0961 41.9099C36.681 41.6839 37.3058 41.8833 37.904 42.1226C38.3028 42.2954 38.3426 41.9897 38.2762 41.8966C38.2026 41.7854 38.1044 41.6928 37.989 41.6259C37.8737 41.559 37.7445 41.5197 37.6115 41.5111H36.1492ZM36.6544 38.6265C36.4816 38.56 36.2955 38.6265 36.1227 38.8126C35.551 39.3709 34.8731 39.9159 34.3281 40.3546C34.1287 40.5274 33.9293 40.8464 34.78 41.1522C34.8199 41.1788 35.4447 41.4181 35.8435 41.4181C36.0163 41.4181 36.0163 41.6573 35.9764 41.7238C35.91 41.8567 35.9631 41.9099 35.8302 42.0295C35.684 42.1625 35.8302 42.3087 35.9631 42.2024C36.4417 41.777 37.2393 42.0561 37.997 42.2954C38.1831 42.3486 38.5022 42.3353 38.5022 42.0827C38.5022 41.8168 38.7016 41.6307 38.8212 41.6174C39.1402 41.6706 40.6822 41.6839 41.1475 41.6307C41.4134 41.5909 41.44 42.0162 41.5862 42.1625C41.6925 42.2821 42.078 42.3087 42.3572 42.1891C42.8889 41.9498 43.6865 41.9498 44.0189 42.1891C44.1518 42.2821 44.2714 42.1891 44.1917 42.096C44.0853 41.9631 44.0986 41.8833 44.0454 41.777C43.9125 41.5111 44.0189 41.4579 44.1518 41.4446C45.614 41.2452 46.0926 40.7534 45.6406 40.3413C45.0557 39.8362 44.4176 39.3177 43.8593 38.7195C43.6998 38.56 43.5935 38.4935 43.2877 38.6265C42.2291 39.1065 41.0863 39.373 39.9245 39.4108C38.7991 39.3381 37.6938 39.0775 36.6544 38.6398V38.6265Z" fill="white"/>
<path fill-rule="evenodd" clip-rule="evenodd" d="M43.5405 38.7061L43.3278 38.7592C42.1314 39.1846 41.0413 39.4771 39.9114 39.4771C38.8081 39.4771 37.6515 39.158 36.6014 38.7326C36.5368 38.7104 36.4666 38.7104 36.402 38.7326C36.3355 38.7459 36.2691 38.7858 36.2292 38.8257C35.7379 39.3171 35.2138 39.7745 34.6606 40.1949C34.5675 40.2614 34.5808 40.4342 34.727 40.4873C35.8304 40.8861 36.9071 41.6173 39.9912 41.5907C43.1151 41.5641 44.2184 40.8463 45.2021 40.5139C45.2686 40.4874 45.335 40.4475 45.3749 40.381C45.3844 40.3652 45.3905 40.3475 45.3928 40.3292C45.3951 40.3109 45.3935 40.2923 45.3882 40.2747C45.3711 40.233 45.3436 40.1964 45.3085 40.1683C44.7369 39.703 44.1387 39.3308 43.7399 38.7858C43.7 38.7193 43.6202 38.7061 43.5405 38.7193V38.7061ZM43.5405 38.7725C43.6069 38.7725 43.6734 38.7725 43.6867 38.8124C44.0855 39.384 44.7103 39.7429 45.2686 40.2082L45.3218 40.3012C45.3254 40.3096 45.3273 40.3187 45.3273 40.3278C45.3273 40.337 45.3254 40.346 45.3218 40.3544C45.3085 40.3943 45.242 40.4342 45.1888 40.4475C44.1785 40.7931 43.1018 41.5109 40.0045 41.5375C36.9204 41.5641 35.857 40.833 34.7536 40.4342C34.6473 40.381 34.6606 40.2747 34.7004 40.2481C35.2588 39.8227 35.7905 39.3441 36.2691 38.8656C36.3102 38.827 36.3606 38.7996 36.4153 38.7858H36.5748C37.6254 39.2423 38.7532 39.4949 39.8981 39.5302C41.0546 39.5302 42.158 39.2378 43.3544 38.8257C43.4185 38.8003 43.4855 38.7825 43.5538 38.7725H43.5405Z" fill="#BD6B00"/>
<path fill-rule="evenodd" clip-rule="evenodd" d="M35.9767 18.6467C35.9767 18.4605 36.2425 18.4473 36.216 18.6998C36.1761 19.0056 36.8141 19.8032 36.8673 20.295C36.9072 20.6273 36.6679 20.9065 36.4419 21.0926C36.3116 21.1849 36.1585 21.2399 35.9992 21.2516C35.8399 21.2633 35.6804 21.2313 35.538 21.1591C35.4184 21.0527 35.312 20.7204 35.4051 20.5875C35.4316 20.5476 35.5779 21.0793 35.8969 21.0793C36.3356 21.0793 36.6945 20.747 36.6945 20.4545C36.7211 19.9494 35.99 19.1518 35.9767 18.6467ZM37.2395 19.8962C37.3193 19.843 37.4256 20.069 37.3459 20.1222C37.2794 20.1621 37.1465 19.9494 37.2395 19.8829V19.8962ZM37.4389 19.431C37.3991 19.4575 37.3326 19.431 37.3459 19.4044C37.4736 19.2269 37.6365 19.0776 37.8244 18.9657C37.8776 18.9391 37.9574 19.0189 37.9308 19.0587C37.7952 19.2164 37.6275 19.3433 37.4389 19.431ZM39.1139 18.1016C39.1538 18.0219 39.393 17.9288 39.4595 17.8756C39.5127 17.8092 39.5393 17.9288 39.5127 17.9687C39.4728 18.0618 39.2601 18.1947 39.1671 18.208C39.1272 18.208 39.0873 18.1548 39.1139 18.1149V18.1016ZM39.6855 18.1415C39.7555 17.9647 39.87 17.809 40.0178 17.6895C40.0843 17.6497 40.1906 17.6895 40.164 17.7427C40.0738 17.9185 39.9413 18.0693 39.7785 18.1814C39.7387 18.2213 39.6722 18.1814 39.6855 18.1415ZM39.1936 18.5004C39.1538 18.527 39.1803 18.5935 39.2069 18.6068C39.2867 18.6334 39.4063 18.6334 39.4728 18.6068C39.5526 18.5536 39.5127 18.2213 39.4063 18.3941C39.3266 18.5004 39.2734 18.4738 39.1936 18.5004ZM38.2232 19.2449C38.0504 19.1119 38.2764 18.9258 38.4492 19.0587C38.8081 19.3246 37.9175 20.3615 37.4389 20.84C37.3459 20.9331 37.2661 20.7071 37.3858 20.5875C37.7319 20.2975 38.0321 19.9569 38.2764 19.5772C38.3296 19.5107 38.3695 19.3645 38.2232 19.2449ZM40.2571 18.3675C40.2704 18.2346 40.0444 18.3675 40.0444 18.1947C40.0444 18.1016 40.297 18.0352 40.4033 18.1415C40.5761 18.3276 40.4432 18.6334 40.1375 18.6599C39.8982 18.6599 39.4728 19.0189 39.5393 19.0853C39.6057 19.1784 40.2571 19.2316 40.6426 19.1784C40.8819 19.1385 40.8287 19.3512 40.5894 19.3778C40.3502 19.4044 40.164 19.3778 39.9514 19.4575C39.6855 19.524 39.5791 19.8563 39.4329 19.9893C39.4063 20.0159 39.3266 19.8829 39.3532 19.8298C39.4595 19.6702 39.619 19.431 39.8051 19.3512C39.9115 19.3113 39.4861 19.298 39.3532 19.2581C39.2468 19.2316 39.2734 19.0853 39.3133 19.0056C39.3664 18.8992 39.7652 18.4871 39.9381 18.5004C40.0843 18.5004 40.2438 18.4605 40.2571 18.3675ZM40.9218 18.3941C41.0015 18.3276 41.0547 18.2213 41.1212 18.1548C41.161 18.1149 41.2408 18.1548 41.2275 18.2611C41.2142 18.3542 41.0946 18.4207 41.0281 18.4871C40.9616 18.527 40.8952 18.434 40.9351 18.3941H40.9218ZM41.7858 18.0883C41.9055 18.0883 41.9188 18.301 41.8124 18.3276C41.7327 18.3542 41.6795 18.1016 41.7858 18.0883ZM41.5067 18.753C41.5067 18.9524 41.5997 18.9391 41.7725 18.9258C41.9453 18.9258 42.0916 18.9258 42.0916 18.7663C42.0916 18.5935 41.9985 18.434 41.9586 18.5536C41.9453 18.6599 41.9188 18.8461 41.8523 18.7663C41.7991 18.6998 41.8257 18.6865 41.7194 18.7929C41.6529 18.8593 41.6529 18.7663 41.613 18.7131C41.5864 18.6732 41.5067 18.7397 41.5067 18.7663V18.753ZM40.2837 19.7101C40.2438 19.9627 40.2837 20.3083 40.4033 20.3083C40.5628 20.3083 40.8819 19.7766 41.0414 19.4841C41.1345 19.3246 41.2807 19.298 41.2142 19.4708C41.1212 19.7234 41.1345 20.2684 41.2142 20.4279C41.2674 20.5077 41.613 20.3482 41.6662 20.2286C41.7725 20.0026 41.6795 19.5905 41.7194 19.3379C41.7326 19.1784 41.8922 19.1385 41.8789 19.298C41.858 19.6299 41.8535 19.9627 41.8656 20.295C41.8656 20.4279 42.2511 20.6141 42.3043 20.2153C42.3308 19.976 42.4638 19.7234 42.3043 19.4575C42.1979 19.2847 42.4505 19.298 42.5834 19.5373C42.6765 19.6968 42.5037 19.9627 42.517 20.1621C42.517 20.4811 42.2777 20.6672 42.1049 20.6672C41.9453 20.6672 41.839 20.4678 41.7061 20.4678C41.5731 20.4678 41.4136 20.6938 41.3073 20.6805C40.8287 20.6539 41.0813 19.976 40.9351 19.9627C40.7755 19.9627 40.6027 20.6273 40.4033 20.6141C40.2172 20.5875 40.0045 20.0557 40.0976 19.843C40.164 19.6304 40.297 19.5772 40.2837 19.7101ZM42.5302 18.6467C42.3043 18.5137 42.5302 18.1548 42.6499 18.2744C42.8626 18.5403 43.0753 19.1385 43.2348 19.1917C43.3278 19.2183 43.3145 18.7397 43.381 18.527C43.4342 18.3542 43.6203 18.4074 43.5937 18.6201C43.5804 18.6865 43.3278 19.4708 43.3544 19.4974C43.5315 19.8292 43.6783 20.1762 43.7931 20.5343C43.833 20.6938 43.6469 20.5875 43.6203 20.5609C43.5007 20.3748 43.3013 19.6968 43.3013 19.7367L43.0753 20.7603C43.0487 20.8932 42.8493 20.8666 42.9025 20.6273C42.9423 20.4412 43.2082 19.524 43.1949 19.4841C43.0427 19.1564 42.8149 18.8694 42.5302 18.6467Z" fill="white"/>
<path fill-rule="evenodd" clip-rule="evenodd" d="M42.9292 20.8533C42.876 20.8533 42.7697 20.9862 43.0887 21.0527C43.5008 21.1325 43.9661 20.9862 44.099 20.5741C44.2718 20.0823 44.3649 19.617 44.4579 19.4442C44.5643 19.2448 44.6972 19.2581 44.5909 18.9657C44.5244 18.7397 44.3915 18.8061 44.3649 18.9258C44.2984 19.2315 44.0193 20.2551 43.9262 20.4279C43.7667 20.7735 43.4344 20.9065 42.9292 20.8533Z" fill="white"/>
<path fill-rule="evenodd" clip-rule="evenodd" d="M43.7797 19.2316C43.7265 19.1386 43.6202 19.2316 43.6468 19.3247C43.6531 19.3622 43.6727 19.3963 43.7019 19.4206C43.7312 19.445 43.7682 19.4581 43.8063 19.4576C43.8993 19.4576 44.0987 19.4709 44.0987 19.3247C44.0987 19.2183 44.0057 19.1253 43.9525 19.2449C43.8861 19.3513 43.8196 19.338 43.7797 19.2449V19.2316ZM43.8728 18.8328C43.8462 18.8594 43.8728 18.979 43.9126 18.9658C44.0654 18.9668 44.216 18.9303 44.3513 18.8594C44.3779 18.8328 44.3646 18.7664 44.3247 18.7664C44.1918 18.7664 43.9791 18.7664 43.8728 18.8328ZM45.0426 19.1386C45.1489 18.979 45.4148 18.9658 45.3084 19.1917C45.0354 19.7399 44.7562 20.2849 44.471 20.8268C44.3646 21.0129 44.2849 20.9199 44.3646 20.7736C44.4577 20.5875 45.016 19.1784 45.0426 19.1386Z" fill="white"/>
<path fill-rule="evenodd" clip-rule="evenodd" d="M44.0188 21.0926C43.9923 20.9862 43.8194 20.8267 43.846 21.1191C43.8726 21.6243 44.5772 21.4648 44.7766 21.292C44.976 21.1191 44.8164 21.8636 45.069 21.9433C45.2019 21.9832 45.4678 21.7971 45.6007 21.6243C45.9597 21.159 46.1989 20.4811 46.5313 20.0291C46.6642 19.843 46.4648 19.7101 46.3983 19.8563C46.0793 20.3614 45.7071 21.3983 45.295 21.6642C44.9627 21.8769 45.069 21.3983 45.0557 21.2388C45.0424 21.1324 44.9095 20.9729 44.7367 21.1191C44.5976 21.2304 44.4227 21.2872 44.2448 21.2787C44.1518 21.2787 44.0587 21.2787 44.0188 21.0926Z" fill="white"/>
<path fill-rule="evenodd" clip-rule="evenodd" d="M45.2686 20.162C45.2686 20.1221 45.1224 20.1088 45.1357 20.255C45.1357 20.3614 45.2686 20.388 45.2819 20.388C45.4813 20.2285 45.242 20.3082 45.2686 20.1487V20.162ZM44.9629 20.7469C44.923 20.7469 44.8831 20.8798 44.9895 20.8931L45.5079 20.8665C45.5611 20.8665 45.5877 20.7469 45.4547 20.7602C45.2952 20.7602 45.0958 20.7203 44.9629 20.7602V20.7469ZM36.7211 18.5402C36.7875 18.5402 36.9338 18.7263 36.9205 18.7928C36.9205 18.8194 36.761 18.7928 36.7211 18.7529C36.6812 18.713 36.6945 18.5402 36.7211 18.5402ZM36.0165 19.9227C35.8836 20.0025 36.0431 20.1487 36.1495 20.0822C36.5217 19.8297 37.08 19.5771 37.2129 19.0852C37.2528 18.9257 37.399 18.6732 37.5453 18.62C37.6782 18.5535 37.8909 18.8725 38.0238 18.62C38.1036 18.487 38.3827 18.713 38.4492 18.5668C38.529 18.394 38.4891 18.3009 38.4891 18.1148C38.4891 18.0085 38.396 17.9819 38.3296 18.1547C38.303 18.2345 38.3296 18.3142 38.3163 18.3674C38.2897 18.394 38.2365 18.4206 38.1833 18.394C38.1567 18.3674 38.1833 18.3009 38.1036 18.2611C38.077 18.2611 38.0238 18.2478 37.9972 18.2876C37.9042 18.4605 37.8643 18.62 37.7181 18.4206C37.5984 18.2876 37.532 18.0085 37.4522 18.3807C37.4256 18.5136 37.2262 18.6997 37.1066 18.6997C36.9604 18.6997 37.0002 18.3009 36.6812 18.3674C36.5084 18.4073 36.5217 18.7263 36.5483 18.8327C36.5881 19.0055 37.08 18.8858 37.0401 18.9922C36.9604 19.3511 36.4552 19.71 36.0165 19.9227ZM32.999 21.6774C32.9857 21.7439 33.0654 21.9034 33.1452 21.9167C33.2249 21.9167 33.2781 21.7439 33.2515 21.6774C33.2249 21.6375 33.0123 21.6375 32.999 21.6774ZM33.4376 22.3288C33.3845 22.2756 33.2249 22.4218 33.3579 22.5282C33.4243 22.5947 33.6902 22.6744 33.7567 22.5548C33.863 22.3953 33.6636 21.8237 33.7567 21.7572C33.8231 21.6907 34.1289 22.1294 34.2884 22.156C34.6473 22.2092 34.5543 21.5445 34.9531 21.5977C35.2056 21.6243 35.2322 21.3052 35.1923 21.0925C35.1658 20.8931 34.8467 20.614 34.7005 20.481C34.5144 20.3215 34.4213 20.614 34.541 20.6937C34.7005 20.8267 34.9797 21.0792 35.0195 21.2387C35.0328 21.3185 34.8334 21.478 34.7537 21.4381C34.5676 21.3318 34.408 20.9064 34.2485 20.8134C34.1954 20.7868 34.0624 20.8532 34.1156 20.9862C34.1954 21.1324 34.5144 21.3451 34.5277 21.5046C34.541 21.6375 34.3948 21.93 34.2884 21.93C34.1688 21.93 33.8896 21.5711 33.7966 21.3983C33.7434 21.3318 33.5972 21.3318 33.5706 21.4514C33.5619 21.697 33.5843 21.9426 33.637 22.1826C33.6636 22.3953 33.5174 22.4086 33.4376 22.3288ZM32.9059 21.1856C32.8527 21.2387 33.0123 21.3451 33.0388 21.3185C33.092 21.2653 33.318 21.0128 33.2781 20.9197C33.2382 20.8399 32.9325 20.6538 32.8793 20.7469C32.7863 20.8931 33.1718 20.9729 33.1053 21.0128C33.031 21.0606 32.9638 21.1188 32.9059 21.1856ZM33.4509 20.0689C33.4509 20.0689 33.5573 20.4013 33.637 20.255C33.6902 20.162 33.4509 20.0689 33.4509 20.0689ZM33.6105 20.6007C33.5839 20.6007 33.4775 20.6937 33.544 20.7336C33.6503 20.7868 33.9295 20.84 33.863 20.6406C33.8231 20.5209 34.2884 20.6406 34.1688 20.3215C34.1207 20.2231 34.0412 20.1436 33.9428 20.0955C33.8896 20.0955 33.7434 20.162 33.8364 20.2152C33.9029 20.2418 34.1023 20.3614 34.0358 20.4412C33.9428 20.5209 33.8896 20.4013 33.7833 20.4279C33.7301 20.4279 33.77 20.5874 33.7301 20.6273C33.7301 20.6538 33.637 20.5741 33.6105 20.5874V20.6007ZM34.3416 19.3378C34.2596 19.4056 34.2033 19.4994 34.1821 19.6037C34.1821 19.6303 34.2219 19.6834 34.2485 19.6701C34.3305 19.608 34.3872 19.5183 34.408 19.4176C34.408 19.3777 34.3815 19.3112 34.3416 19.3378ZM34.7138 19.2979C34.6074 19.165 34.8467 18.9523 34.9398 19.2315C35.0062 19.4043 35.6709 20.2816 35.8038 20.5741C35.9102 20.7735 35.8038 20.8532 35.6842 20.707C35.3519 20.2816 35.0727 19.7499 34.7138 19.2979ZM35.405 19.3112C35.5247 19.1783 35.764 18.9124 35.6975 18.7795C35.6443 18.6466 35.4981 18.6466 35.4715 18.6864C35.3386 18.8593 35.5779 18.8194 35.538 18.8725C35.4715 19.0055 35.405 19.0852 35.3652 19.2182C35.3519 19.2581 35.3785 19.3378 35.405 19.3112ZM45.7472 19.7366C45.6541 19.6701 45.8269 19.3378 45.9466 19.4707C46.2523 19.8297 46.3986 21.0128 46.4916 21.9034C46.4916 21.9034 46.3587 22.023 46.3587 21.9965C46.3587 21.5312 46.1593 20.0822 45.7472 19.7366ZM38.6885 18.5934C38.5821 18.3541 38.8347 18.2744 38.8746 18.4339C39.0474 19.2049 39.4728 19.7898 39.8051 20.3082C39.8982 20.4677 39.8051 20.5741 39.5791 20.4146C39.4196 20.3082 39.2468 19.8961 39.1803 19.8828C39.0208 19.8562 38.6752 20.5475 37.9706 20.3481C37.7845 20.2949 37.7978 19.7499 37.7845 19.5106C37.7845 19.391 37.9175 19.3777 37.9175 19.5106C37.9175 19.7366 37.9175 20.2019 38.1966 20.2285C38.4359 20.2285 38.941 19.9094 39.0474 19.6436C39.1537 19.3777 38.7948 18.8593 38.6885 18.5801V18.5934Z" fill="white"/>
<path fill-rule="evenodd" clip-rule="evenodd" d="M45.9332 21.8105C45.9864 21.651 46.7441 20.3748 46.8505 20.0957C46.9036 19.9627 47.1163 20.3349 46.9036 20.5343C46.7175 20.6939 46.1725 21.5978 46.0662 21.9168C46.013 22.0498 45.88 21.9833 45.9332 21.8105Z" fill="white"/>
<path fill-rule="evenodd" clip-rule="evenodd" d="M47.223 20.6008C47.3559 20.069 47.7015 20.6805 47.3958 20.973C46.9438 21.425 46.7976 22.289 46.0665 22.422C45.8804 22.4618 45.5347 22.3289 45.4284 22.2491C45.3885 22.2226 45.455 22.0364 45.5746 22.1295C45.7474 22.2624 46.1196 22.3023 46.319 22.1428C46.7534 21.7193 47.0657 21.1867 47.223 20.6008ZM39.6458 22.289C39.6059 22.3289 39.5129 22.3289 39.4996 22.3821C39.4597 22.5682 39.4996 22.6745 39.4597 22.8606C39.4198 23.0467 39.2869 23.0467 39.3002 22.9005C39.3002 22.7144 39.473 22.4352 39.3534 22.422C39.2736 22.4087 39.2204 22.3023 39.3002 22.2491C39.4464 22.1561 39.5262 22.1694 39.6192 22.196C39.6591 22.2093 39.6724 22.2624 39.6458 22.289Z" fill="white"/>
<path fill-rule="evenodd" clip-rule="evenodd" d="M39.5394 22.0232C39.3533 22.2093 39.1672 22.2758 38.9944 22.4885C38.9146 22.5682 38.9279 22.6879 38.8747 22.8075C38.8349 22.9271 38.6886 22.9404 38.6488 22.9271C38.5823 22.874 38.5956 22.6613 38.5158 22.7676C38.4361 22.8873 38.3962 23.0335 38.2898 23.0335C38.1968 23.0335 38.024 22.8341 38.117 22.8341C38.4228 22.7942 38.4095 22.5682 38.5158 22.5416C38.6488 22.5283 38.6488 22.741 38.7418 22.7012C38.795 22.6746 38.8349 22.422 38.9013 22.3555C39.1007 22.1428 39.2602 22.0365 39.4729 21.877C39.566 21.7972 39.6458 21.9434 39.5394 22.0365V22.0232ZM40.2439 22.6879C40.0844 22.7145 40.111 22.9139 40.1642 22.9271C40.2307 22.967 40.3503 22.9803 40.3902 22.7543C40.4168 22.6613 40.4301 23.2196 40.6295 23.0069C40.7624 22.874 41.0415 23.0335 41.1612 22.874C41.2542 22.7543 41.2941 22.6746 41.2144 22.5151C41.1878 22.4752 41.0814 22.4885 41.0814 22.6081C41.0814 22.7145 41.015 22.8341 40.9086 22.8208C40.8554 22.8075 40.9352 22.5682 40.882 22.5018C40.8696 22.4896 40.8529 22.4828 40.8355 22.4828C40.8181 22.4828 40.8014 22.4896 40.789 22.5018C40.7491 22.5549 40.8288 22.7942 40.7092 22.8208C40.5497 22.8474 40.6294 22.6613 40.5763 22.6347C40.3503 22.5283 40.337 22.6613 40.2439 22.6746V22.6879ZM41.4403 22.2891C41.56 22.2625 41.5201 22.2625 41.7062 22.1163C41.7727 22.0631 41.786 22.2226 41.7727 22.2891C41.7727 22.3821 41.6397 22.3157 41.5999 22.4087C41.5467 22.5283 41.5733 22.8075 41.5467 22.9138C41.5467 22.967 41.4403 22.967 41.4403 22.9138C41.4138 22.7809 41.4536 22.648 41.4403 22.4752C41.4403 22.422 41.3739 22.3289 41.4403 22.3024V22.2891ZM40.7757 21.9567C40.7491 22.0764 40.7491 22.1694 40.7491 22.2625C40.7491 22.3289 40.882 22.2891 40.882 22.2758C40.882 22.1694 40.9086 22.0099 40.882 21.97C40.8554 21.9567 40.789 21.9301 40.7757 21.9567Z" fill="white"/>
<path fill-rule="evenodd" clip-rule="evenodd" d="M39.9379 20.7205L39.7518 21.4649L39.4859 20.9597V21.4782L38.901 20.7869L39.1004 21.5313L38.5687 21.0794L38.8612 21.5845L37.9306 20.9863L38.5155 21.6776L37.7711 21.3054L38.3028 21.7573L37.1064 21.3054L38.263 21.877C38.7884 21.6378 39.3608 21.5197 39.9379 21.5313C40.5893 21.5313 41.1742 21.6643 41.5996 21.877L42.7694 21.3054L41.573 21.7573L42.1047 21.3054L41.3736 21.6776L41.9452 20.9863L41.0147 21.5845L41.3071 21.0794L40.7754 21.5181L40.9748 20.7869L40.4032 21.4782V20.9597L40.1373 21.4649L39.9379 20.7205Z" fill="white"/>
<path d="M38.9125 36.8751L38.875 37.2001H38.825L38.8125 36.9751C38.7977 36.9067 38.7768 36.8398 38.75 36.7751C38.7344 36.7191 38.7135 36.6646 38.6875 36.6126L38.5625 36.4376L38.6625 36.1626C38.746 36.2479 38.8099 36.3502 38.85 36.4626C38.8938 36.5913 38.915 36.7267 38.9125 36.8626M39.7875 36.3376C39.7875 36.4251 39.7625 36.4876 39.725 36.5251C39.7 36.5626 39.65 36.6001 39.5625 36.6126L39.6125 36.8001C39.625 36.883 39.625 36.9672 39.6125 37.0501C39.6099 37.1044 39.6057 37.1586 39.6 37.2126H39.55C39.5502 37.1582 39.546 37.1038 39.5375 37.0501C39.5331 37.0077 39.5247 36.9659 39.5125 36.9251L39.4625 36.8001C39.4377 36.7397 39.4085 36.6812 39.375 36.6251L39.25 36.4126L39.325 36.1626L39.45 36.2876C39.4875 36.3126 39.525 36.3251 39.575 36.3251C39.675 36.3251 39.725 36.2751 39.725 36.1626H39.775V36.3376M40.575 36.9376L40.5125 37.2001C40.4625 37.2001 40.4375 37.1626 40.4125 37.1126L40.3625 36.9501C40.3535 36.8796 40.3493 36.8086 40.35 36.7376C40.3096 36.7512 40.2676 36.7596 40.225 36.7626C40.1667 36.7654 40.1092 36.7477 40.0625 36.7126C40.0434 36.6977 40.0279 36.6788 40.0171 36.6572C40.0063 36.6355 40.0005 36.6118 40 36.5876C40 36.4751 40.0375 36.3751 40.0875 36.3001C40.15 36.2126 40.2125 36.1751 40.275 36.1626C40.3375 36.1626 40.375 36.1751 40.4 36.2126C40.4213 36.2466 40.4342 36.2851 40.4375 36.3251V36.5751C40.4375 36.6876 40.45 36.7626 40.475 36.8126C40.475 36.8501 40.5125 36.8876 40.575 36.9376ZM40.325 36.5001C40.325 36.4251 40.2875 36.4001 40.225 36.4001C40.1993 36.3964 40.1731 36.4007 40.15 36.4126C40.125 36.4251 40.125 36.4376 40.125 36.4501C40.125 36.4876 40.1625 36.5126 40.25 36.5126L40.325 36.5001ZM41.4125 36.8751L41.375 37.2001C41.3125 37.1501 41.25 37.0751 41.2 36.9501C41.1314 36.7842 41.0771 36.6127 41.0375 36.4376C40.9751 36.6707 40.9 36.9002 40.8125 37.1251C40.7848 37.1602 40.7509 37.1898 40.7125 37.2126V36.9001C40.7875 36.8126 40.825 36.7626 40.8375 36.7126C40.8795 36.6462 40.9131 36.5748 40.9375 36.5001L41 36.1626H41.05L41.1625 36.5001C41.1875 36.5751 41.225 36.6501 41.275 36.7001L41.4 36.8751" fill="white"/>
<path d="M43.8499 39.925C43.8999 39.975 43.9249 40.025 43.9374 40.075L43.9874 40.275L43.8874 40.2875C43.8531 40.2204 43.8112 40.1575 43.7624 40.1C43.7188 40.048 43.6729 39.998 43.6249 39.95C43.5556 39.8858 43.4848 39.8232 43.4124 39.7625C43.3318 39.6885 43.2484 39.6176 43.1624 39.55C43.1124 39.525 43.0874 39.5 43.0874 39.4875C43.0675 39.4574 43.0546 39.4232 43.0499 39.3875C43.0368 39.3215 43.0284 39.2547 43.0249 39.1875L43.3624 39.4625C43.47 39.5502 43.5742 39.6419 43.6749 39.7375L43.8499 39.925ZM42.6624 39.2L42.6374 39.45H42.2499L42.2874 39.2H42.6624ZM43.7124 40.3125L42.7624 40.6L42.5999 40.35L43.4124 40.1L43.3249 40C43.2926 39.9679 43.2544 39.9424 43.2124 39.925C43.2127 39.9481 43.2085 39.971 43.1999 39.9925C43.1913 40.014 43.1786 40.0335 43.1624 40.05C43.1291 40.0869 43.0856 40.113 43.0374 40.125C42.9638 40.1452 42.886 40.1452 42.8124 40.125C42.7491 40.1176 42.6909 40.0863 42.6499 40.0375C42.5943 39.9564 42.5639 39.8608 42.5624 39.7625C42.5624 39.6375 42.5999 39.5625 42.6749 39.5375C42.7624 39.5125 42.8999 39.5375 43.0499 39.625C43.1972 39.6935 43.3258 39.7964 43.4249 39.925L43.7124 40.3125ZM42.9874 39.8125C42.9556 39.7963 42.922 39.7837 42.8874 39.775C42.8629 39.7681 42.8369 39.7681 42.8124 39.775C42.7999 39.7764 42.7878 39.7805 42.7771 39.7869C42.7663 39.7934 42.757 39.8021 42.7499 39.8125C42.7418 39.8233 42.7374 39.8365 42.7374 39.85C42.7374 39.8635 42.7418 39.8767 42.7499 39.8875L42.8124 39.9125H42.8874L42.9374 39.875L42.9874 39.8125ZM41.9874 39.6125L41.9249 39.8625L41.5249 39.825L41.5874 39.575L41.9749 39.6125M42.9124 40.575L42.6999 40.625C42.6295 40.6364 42.5578 40.6364 42.4874 40.625C42.422 40.6222 42.358 40.6051 42.2999 40.575C42.2624 40.6375 42.1999 40.7 42.1124 40.725C42.0489 40.7576 41.9817 40.7828 41.9124 40.8L41.7624 40.8375L41.6374 40.5875L41.7749 40.55C41.8302 40.5374 41.8846 40.5207 41.9374 40.5L42.0499 40.4375L41.9249 40.375H41.8374C41.8292 40.3729 41.8206 40.3729 41.8124 40.375C41.8004 40.3846 41.7917 40.3977 41.7874 40.4125H41.7249C41.6624 40.3125 41.6499 40.225 41.6874 40.1625C41.7249 40.1 41.7999 40.0625 41.9374 40.0375C42.0431 40.0083 42.1535 39.9998 42.2624 40.0125C42.3624 40.025 42.4249 40.0625 42.4499 40.125C42.4749 40.15 42.4749 40.1875 42.4749 40.2125L42.4249 40.3625H42.4874C42.5123 40.3663 42.5375 40.3663 42.5624 40.3625L42.7749 40.325L42.8999 40.575M41.8999 40.8L41.6999 40.8375C41.6052 40.8569 41.5067 40.839 41.4249 40.7875C41.3243 40.7018 41.2505 40.589 41.2124 40.4625L41.1124 40.1875C41.0937 40.136 41.0585 40.0921 41.0124 40.0625C40.9774 40.0375 40.9396 40.0166 40.8999 40L40.9749 39.7375C41.0499 39.775 41.0999 39.8125 41.1499 39.8625L41.2749 40.075L41.3374 40.2625L41.4749 40.5375C41.5124 40.575 41.5624 40.5875 41.5999 40.575L41.8124 40.55L41.8999 40.8ZM41.0249 39.8625L40.8999 40.1L40.5249 40.0125L40.6499 39.775L41.0249 39.8625ZM41.2499 40.9125L40.3124 41L40.2624 40.75L41.0374 40.6625C41.02 40.6241 40.9944 40.5899 40.9624 40.5625C40.9225 40.5346 40.8808 40.5095 40.8374 40.4875L40.8999 40.2375C40.9874 40.2875 41.0499 40.35 41.0999 40.4C41.1374 40.4625 41.1749 40.55 41.1999 40.6625L41.2499 40.9125ZM40.4999 41.0375C40.4078 41.0351 40.3159 41.0268 40.2249 41.0125C40.1524 40.9977 40.0813 40.9768 40.0124 40.95C39.9605 40.9732 39.9059 40.99 39.8499 41C39.7792 41.0061 39.7081 41.0061 39.6374 41H39.3874C39.3351 41.0003 39.2835 40.9874 39.2374 40.9625C39.1999 40.9375 39.1749 40.9 39.1374 40.8375C39.085 40.8926 39.0209 40.9353 38.9499 40.9625L38.7374 40.975H38.5249L38.5499 40.7125H38.7624C38.8624 40.7125 38.9499 40.7125 39.0249 40.6625C39.0712 40.6452 39.1113 40.6147 39.1402 40.5746C39.1692 40.5346 39.1856 40.4869 39.1874 40.4375L39.2749 40.45C39.2696 40.5041 39.2654 40.5582 39.2624 40.6125C39.2624 40.65 39.2624 40.675 39.2999 40.7C39.3374 40.725 39.3749 40.7375 39.4249 40.7375H39.6124C39.7374 40.7375 39.8124 40.7375 39.8624 40.7125C39.9374 40.6875 39.9749 40.65 39.9874 40.575L39.9999 40.525C39.9999 40.525 40.0374 40.525 40.0624 40.5L40.1249 40.475V40.525C40.1251 40.5375 40.1251 40.55 40.1249 40.5625L40.0874 40.7C40.1689 40.7277 40.2525 40.7486 40.3374 40.7625C40.3499 40.7375 40.3374 40.7125 40.3249 40.675L40.2874 40.6C40.2874 40.5865 40.2918 40.5733 40.2999 40.5625L40.3374 40.5375L40.4624 40.425L40.5249 40.55V40.675L40.4999 41.0375ZM39.0874 39.95L38.8374 40.1125L38.6749 40L38.4999 40.125L38.2624 40L38.4874 39.8375L38.6749 39.9375L38.8624 39.8125L39.0874 39.9375M38.7124 40.9625L37.7999 40.8125L37.8999 40.5625L38.6749 40.6875C38.6749 40.6375 38.6749 40.6 38.6499 40.5625C38.6321 40.5273 38.6112 40.4939 38.5874 40.4625L38.7874 40.25C38.8374 40.325 38.8624 40.375 38.8749 40.45C38.8749 40.5125 38.8499 40.6 38.8124 40.7125L38.7124 40.9625ZM37.9499 40.8375L37.7499 40.8C37.6374 40.775 37.5749 40.725 37.5624 40.65C37.5374 40.575 37.5749 40.4625 37.6624 40.3L37.8124 40.05C37.8499 39.9875 37.8624 39.9375 37.8499 39.9C37.8426 39.8689 37.8299 39.8393 37.8124 39.8125L38.0874 39.6125C38.1249 39.675 38.1249 39.7375 38.1249 39.7875C38.1249 39.85 38.0874 39.925 38.0374 40.0125L37.9374 40.1875C37.8813 40.2704 37.843 40.3641 37.8249 40.4625C37.8249 40.5125 37.8499 40.5375 37.8874 40.55L38.0874 40.6L37.9499 40.85M37.4749 39.85L37.1624 39.9875L36.9374 39.775L37.2624 39.65L37.4749 39.8625M37.3499 40.6875C37.2928 40.756 37.2253 40.815 37.1499 40.8625C37.0853 40.9026 37.0128 40.9282 36.9374 40.9375L36.6374 40.925C36.5182 40.9073 36.4009 40.878 36.2874 40.8375C36.1264 40.7925 35.98 40.7063 35.8624 40.5875C35.7874 40.4875 35.7874 40.4 35.8624 40.3125C35.9327 40.231 36.0175 40.1632 36.1124 40.1125C36.2124 40.05 36.3624 39.9875 36.5874 39.9125L36.6374 39.975L36.2874 40.125C36.2249 40.1625 36.1624 40.2 36.1249 40.25C36.0749 40.3 36.0874 40.375 36.1499 40.45C36.3755 40.6249 36.652 40.7214 36.9374 40.725C37.0874 40.725 37.1874 40.6875 37.2249 40.6375C37.2624 40.6 37.2749 40.5625 37.2874 40.5125L37.3124 40.3125L37.6249 40.125C37.6266 40.1878 37.6224 40.2505 37.6124 40.3125C37.5857 40.3874 37.543 40.4557 37.4874 40.5125L37.3374 40.6875" fill="#BF0000"/>
<g clip-path="url(#clip1_1809_6490)">
<path d="M0 0H80V60H0V0Z" fill="#006A4E"/>
<path d="M35 50C46.0457 50 55 41.0457 55 30C55 18.9543 46.0457 10 35 10C23.9543 10 15 18.9543 15 30C15 41.0457 23.9543 50 35 50Z" fill="#F42A41"/>
</g>
</g>
<defs>
<clipPath id="clip0_1809_6490">
<rect width="80" height="60" fill="white"/>
</clipPath>
<clipPath id="clip1_1809_6490">
<rect width="80" height="60" fill="white"/>
</clipPath>
</defs>
</svg>
