<svg width="80" height="60" viewBox="0 0 80 60" fill="none" xmlns="http://www.w3.org/2000/svg">
<g clip-path="url(#clip0_1809_6735)">
<path d="M18.7625 0H61.225V60H18.75L18.7625 0Z" fill="white"/>
<path d="M-2.4624 0H18.7626V60H-2.4624V0ZM61.2251 0H82.4501V60H61.2376L61.2251 0ZM25.1251 29L23.4626 29.55L31.1376 36.3C31.7251 38.0125 30.9376 38.525 30.4376 39.425L38.7626 38.375L38.5626 46.75L40.3001 46.7125L39.9126 38.3875L48.2501 39.3875C47.7376 38.3 47.2751 37.725 47.7501 35.9875L55.4126 29.6125L54.0751 29.1125C52.9751 28.2625 54.5501 25.0375 54.7751 23C54.7751 23 50.3126 24.5375 50.0251 23.725L48.8751 21.5375L44.8001 26.0125C44.3626 26.125 44.1751 25.95 44.0626 25.575L45.9376 16.225L42.9626 17.9C42.7126 18.0125 42.4626 17.9125 42.3126 17.625L39.4376 11.875L36.4876 17.85C36.2626 18.0625 36.0376 18.0875 35.8626 17.9375L33.0001 16.35L34.7126 25.6125C34.5751 25.9875 34.2501 26.0875 33.8751 25.8875L29.9751 21.475C29.4751 22.2875 29.1251 23.6125 28.4501 23.9125C27.7751 24.2 25.5126 23.35 24.0001 23.0375C24.5251 24.8875 26.1251 27.9875 25.1251 29Z" fill="#D52B1E"/>
</g>
<defs>
<clipPath id="clip0_1809_6735">
<rect width="80" height="60" fill="white"/>
</clipPath>
</defs>
</svg>
