<svg width="25" height="25" viewBox="0 0 25 25" fill="none" xmlns="http://www.w3.org/2000/svg">
<g id="cart-icon">
<path id="Vector" d="M2.88281 3.5188L3.14772 3.6071C4.46776 4.04712 5.12778 4.26712 5.50529 4.7909C5.88281 5.31467 5.88281 6.01039 5.88281 7.40184V10.0188C5.88281 12.8472 5.88281 14.2614 6.76149 15.1401C7.64017 16.0188 9.05438 16.0188 11.8828 16.0188H19.8828" stroke="white" stroke-width="1.5" stroke-linecap="round"/>
<path id="Vector_2" d="M8.38281 18.5188C9.21124 18.5188 9.88281 19.1904 9.88281 20.0188C9.88281 20.8472 9.21124 21.5188 8.38281 21.5188C7.55438 21.5188 6.88281 20.8472 6.88281 20.0188C6.88281 19.1904 7.55438 18.5188 8.38281 18.5188Z" stroke="white" stroke-width="1.5"/>
<path id="Vector_3" d="M17.3828 18.5188C18.2112 18.5188 18.8828 19.1903 18.8828 20.0188C18.8828 20.8472 18.2112 21.5188 17.3828 21.5188C16.5544 21.5188 15.8828 20.8472 15.8828 20.0188C15.8828 19.1903 16.5544 18.5188 17.3828 18.5188Z" stroke="white" stroke-width="1.5"/>
<path id="Vector_4" d="M5.88281 6.5188H17.3332C19.3882 6.5188 20.4156 6.5188 20.8603 7.19306C21.3049 7.86733 20.9001 8.81174 20.0906 10.7006L19.662 11.7006C19.2841 12.5824 19.0951 13.0233 18.7194 13.2711C18.3437 13.5188 17.864 13.5188 16.9046 13.5188H5.88281" stroke="white" stroke-width="1.5"/>
</g>
</svg>
