<svg width="1400" height="396" viewBox="0 0 1400 396" fill="none" xmlns="http://www.w3.org/2000/svg">
<g opacity="0.11">
<circle cx="3.47466" cy="316.083" r="5" transform="rotate(-30 3.47466 316.083)" fill="#AFA7DD"/>
<circle cx="22.7754" cy="349.518" r="5" transform="rotate(-30 22.7754 349.518)" fill="#AFA7DD"/>
<circle cx="42.0762" cy="382.954" r="5" transform="rotate(-30 42.0762 382.954)" fill="#AFA7DD"/>
<circle cx="12.2598" cy="221.848" r="5" transform="rotate(-30 12.2598 221.848)" fill="#AFA7DD"/>
<circle cx="31.5606" cy="255.284" r="5" transform="rotate(-30 31.5606 255.284)" fill="#AFA7DD"/>
<circle cx="50.8692" cy="288.719" r="5" transform="rotate(-30 50.8692 288.719)" fill="#AFA7DD"/>
<circle cx="70.17" cy="322.155" r="5" transform="rotate(-30 70.17 322.155)" fill="#AFA7DD"/>
<circle cx="89.4707" cy="355.59" r="5" transform="rotate(-30 89.4707 355.59)" fill="#AFA7DD"/>
<circle cx="108.779" cy="389.025" r="5" transform="rotate(-30 108.779 389.025)" fill="#AFA7DD"/>
<circle cx="1.74028" cy="94.1783" r="5" transform="rotate(-30 1.74028 94.1783)" fill="#AFA7DD"/>
<circle cx="21.0411" cy="127.614" r="5" transform="rotate(-30 21.0411 127.614)" fill="#AFA7DD"/>
<circle cx="40.3497" cy="161.049" r="5" transform="rotate(-30 40.3497 161.049)" fill="#AFA7DD"/>
<circle cx="59.6504" cy="194.485" r="5" transform="rotate(-30 59.6504 194.485)" fill="#AFA7DD"/>
<circle cx="78.9551" cy="227.92" r="5" transform="rotate(-30 78.9551 227.92)" fill="#AFA7DD"/>
<circle cx="98.2637" cy="261.356" r="5" transform="rotate(-30 98.2637 261.356)" fill="#AFA7DD"/>
<circle cx="117.564" cy="294.792" r="5" transform="rotate(-30 117.564 294.792)" fill="#AFA7DD"/>
<circle cx="136.865" cy="328.227" r="5" transform="rotate(-30 136.865 328.227)" fill="#AFA7DD"/>
<circle cx="156.174" cy="361.662" r="5" transform="rotate(-30 156.174 361.662)" fill="#AFA7DD"/>
<circle cx="175.475" cy="395.097" r="5" transform="rotate(-30 175.475 395.097)" fill="#AFA7DD"/>
<circle cx="10.5293" cy="-0.0556152" r="5" transform="rotate(-30 10.5293 -0.0556152)" fill="#AFA7DD"/>
<circle cx="29.834" cy="33.3799" r="5" transform="rotate(-30 29.834 33.3799)" fill="#AFA7DD"/>
<circle cx="49.1348" cy="66.815" r="5" transform="rotate(-30 49.1348 66.815)" fill="#AFA7DD"/>
<circle cx="68.4356" cy="100.251" r="5" transform="rotate(-30 68.4356 100.251)" fill="#AFA7DD"/>
<circle cx="87.7442" cy="133.686" r="5" transform="rotate(-30 87.7442 133.686)" fill="#AFA7DD"/>
<circle cx="107.045" cy="167.122" r="5" transform="rotate(-30 107.045 167.122)" fill="#AFA7DD"/>
<circle cx="126.354" cy="200.557" r="5" transform="rotate(-30 126.354 200.557)" fill="#AFA7DD"/>
<circle cx="145.662" cy="233.993" r="5" transform="rotate(-30 145.662 233.993)" fill="#AFA7DD"/>
<circle cx="164.963" cy="267.428" r="5" transform="rotate(-30 164.963 267.428)" fill="#AFA7DD"/>
<circle cx="184.26" cy="300.864" r="5" transform="rotate(-30 184.26 300.864)" fill="#AFA7DD"/>
<circle cx="203.568" cy="334.298" r="5" transform="rotate(-30 203.568 334.298)" fill="#AFA7DD"/>
<circle cx="222.869" cy="367.734" r="5" transform="rotate(-30 222.869 367.734)" fill="#AFA7DD"/>
<circle cx="242.178" cy="401.169" r="5" transform="rotate(-30 242.178 401.169)" fill="#AFA7DD"/>
<circle cx="77.2325" cy="6.01665" r="5" transform="rotate(-30 77.2325 6.01665)" fill="#AFA7DD"/>
<circle cx="96.5332" cy="39.4517" r="5" transform="rotate(-30 96.5332 39.4517)" fill="#AFA7DD"/>
<circle cx="115.838" cy="72.8873" r="5" transform="rotate(-30 115.838 72.8873)" fill="#AFA7DD"/>
<circle cx="135.139" cy="106.323" r="5" transform="rotate(-30 135.139 106.323)" fill="#AFA7DD"/>
<circle cx="154.439" cy="139.758" r="5" transform="rotate(-30 154.439 139.758)" fill="#AFA7DD"/>
<circle cx="173.748" cy="173.193" r="5" transform="rotate(-30 173.748 173.193)" fill="#AFA7DD"/>
<circle cx="193.049" cy="206.629" r="5" transform="rotate(-30 193.049 206.629)" fill="#AFA7DD"/>
<circle cx="212.357" cy="240.065" r="5" transform="rotate(-30 212.357 240.065)" fill="#AFA7DD"/>
<circle cx="231.658" cy="273.501" r="5" transform="rotate(-30 231.658 273.501)" fill="#AFA7DD"/>
<circle cx="250.967" cy="306.935" r="5" transform="rotate(-30 250.967 306.935)" fill="#AFA7DD"/>
<circle cx="270.264" cy="340.371" r="5" transform="rotate(-30 270.264 340.371)" fill="#AFA7DD"/>
<circle cx="289.568" cy="373.806" r="5" transform="rotate(-30 289.568 373.806)" fill="#AFA7DD"/>
<circle cx="143.928" cy="12.0884" r="5" transform="rotate(-30 143.928 12.0884)" fill="#AFA7DD"/>
<circle cx="163.236" cy="45.524" r="5" transform="rotate(-30 163.236 45.524)" fill="#AFA7DD"/>
<circle cx="182.529" cy="78.9595" r="5" transform="rotate(-30 182.529 78.9595)" fill="#AFA7DD"/>
<circle cx="201.838" cy="112.395" r="5" transform="rotate(-30 201.838 112.395)" fill="#AFA7DD"/>
<circle cx="221.143" cy="145.83" r="5" transform="rotate(-30 221.143 145.83)" fill="#AFA7DD"/>
<circle cx="240.443" cy="179.266" r="5" transform="rotate(-30 240.443 179.266)" fill="#AFA7DD"/>
<circle cx="259.752" cy="212.701" r="5" transform="rotate(-30 259.752 212.701)" fill="#AFA7DD"/>
<circle cx="279.053" cy="246.137" r="5" transform="rotate(-30 279.053 246.137)" fill="#AFA7DD"/>
<circle cx="298.354" cy="279.572" r="5" transform="rotate(-30 298.354 279.572)" fill="#AFA7DD"/>
<circle cx="317.662" cy="313.007" r="5" transform="rotate(-30 317.662 313.007)" fill="#AFA7DD"/>
<circle cx="336.963" cy="346.443" r="5" transform="rotate(-30 336.963 346.443)" fill="#AFA7DD"/>
<circle cx="356.272" cy="379.878" r="5" transform="rotate(-30 356.272 379.878)" fill="#AFA7DD"/>
<circle cx="210.623" cy="18.1607" r="5" transform="rotate(-30 210.623 18.1607)" fill="#AFA7DD"/>
<circle cx="229.924" cy="51.5962" r="5" transform="rotate(-30 229.924 51.5962)" fill="#AFA7DD"/>
<circle cx="249.232" cy="85.0318" r="5" transform="rotate(-30 249.232 85.0318)" fill="#AFA7DD"/>
<circle cx="268.533" cy="118.467" r="5" transform="rotate(-30 268.533 118.467)" fill="#AFA7DD"/>
<circle cx="287.842" cy="151.902" r="5" transform="rotate(-30 287.842 151.902)" fill="#AFA7DD"/>
<circle cx="307.147" cy="185.338" r="5" transform="rotate(-30 307.147 185.338)" fill="#AFA7DD"/>
<circle cx="326.447" cy="218.773" r="5" transform="rotate(-30 326.447 218.773)" fill="#AFA7DD"/>
<circle cx="345.748" cy="252.209" r="5" transform="rotate(-30 345.748 252.209)" fill="#AFA7DD"/>
<circle cx="365.057" cy="285.644" r="5" transform="rotate(-30 365.057 285.644)" fill="#AFA7DD"/>
<circle cx="384.357" cy="319.08" r="5" transform="rotate(-30 384.357 319.08)" fill="#AFA7DD"/>
<circle cx="403.666" cy="352.515" r="5" transform="rotate(-30 403.666 352.515)" fill="#AFA7DD"/>
<circle cx="422.967" cy="385.951" r="5" transform="rotate(-30 422.967 385.951)" fill="#AFA7DD"/>
<circle cx="277.316" cy="24.2334" r="5" transform="rotate(-30 277.316 24.2334)" fill="#AFA7DD"/>
<circle cx="296.617" cy="57.6685" r="5" transform="rotate(-30 296.617 57.6685)" fill="#AFA7DD"/>
<circle cx="315.918" cy="91.1036" r="5" transform="rotate(-30 315.918 91.1036)" fill="#AFA7DD"/>
<circle cx="335.234" cy="124.539" r="5" transform="rotate(-30 335.234 124.539)" fill="#AFA7DD"/>
<circle cx="354.535" cy="157.975" r="5" transform="rotate(-30 354.535 157.975)" fill="#AFA7DD"/>
<circle cx="373.836" cy="191.41" r="5" transform="rotate(-30 373.836 191.41)" fill="#AFA7DD"/>
<circle cx="393.137" cy="224.845" r="5" transform="rotate(-30 393.137 224.845)" fill="#AFA7DD"/>
<circle cx="412.453" cy="258.281" r="5" transform="rotate(-30 412.453 258.281)" fill="#AFA7DD"/>
<circle cx="431.754" cy="291.716" r="5" transform="rotate(-30 431.754 291.716)" fill="#AFA7DD"/>
<circle cx="451.055" cy="325.152" r="5" transform="rotate(-30 451.055 325.152)" fill="#AFA7DD"/>
<circle cx="470.357" cy="358.588" r="5" transform="rotate(-30 470.357 358.588)" fill="#AFA7DD"/>
<circle cx="324.707" cy="-3.13032" r="5" transform="rotate(-30 324.707 -3.13032)" fill="#AFA7DD"/>
<circle cx="344.02" cy="30.3052" r="5" transform="rotate(-30 344.02 30.3052)" fill="#AFA7DD"/>
<circle cx="363.32" cy="63.7403" r="5" transform="rotate(-30 363.32 63.7403)" fill="#AFA7DD"/>
<circle cx="382.621" cy="97.1758" r="5" transform="rotate(-30 382.621 97.1758)" fill="#AFA7DD"/>
<circle cx="401.922" cy="130.611" r="5" transform="rotate(-30 401.922 130.611)" fill="#AFA7DD"/>
<circle cx="421.223" cy="164.047" r="5" transform="rotate(-30 421.223 164.047)" fill="#AFA7DD"/>
<circle cx="440.539" cy="197.482" r="5" transform="rotate(-30 440.539 197.482)" fill="#AFA7DD"/>
<circle cx="459.84" cy="230.918" r="5" transform="rotate(-30 459.84 230.918)" fill="#AFA7DD"/>
<circle cx="479.141" cy="264.353" r="5" transform="rotate(-30 479.141 264.353)" fill="#AFA7DD"/>
<circle cx="498.441" cy="297.79" r="5" transform="rotate(-30 498.441 297.79)" fill="#AFA7DD"/>
<circle cx="517.758" cy="331.224" r="5" transform="rotate(-30 517.758 331.224)" fill="#AFA7DD"/>
<circle cx="391.41" cy="2.94194" r="5" transform="rotate(-30 391.41 2.94194)" fill="#AFA7DD"/>
<circle cx="410.711" cy="36.377" r="5" transform="rotate(-30 410.711 36.377)" fill="#AFA7DD"/>
<circle cx="430.023" cy="69.8125" r="5" transform="rotate(-30 430.023 69.8125)" fill="#AFA7DD"/>
<circle cx="449.324" cy="103.248" r="5" transform="rotate(-30 449.324 103.248)" fill="#AFA7DD"/>
<circle cx="468.625" cy="136.684" r="5" transform="rotate(-30 468.625 136.684)" fill="#AFA7DD"/>
<circle cx="487.926" cy="170.119" r="5" transform="rotate(-30 487.926 170.119)" fill="#AFA7DD"/>
<circle cx="507.242" cy="203.554" r="5" transform="rotate(-30 507.242 203.554)" fill="#AFA7DD"/>
<circle cx="526.543" cy="236.99" r="5" transform="rotate(-30 526.543 236.99)" fill="#AFA7DD"/>
<circle cx="545.844" cy="270.425" r="5" transform="rotate(-30 545.844 270.425)" fill="#AFA7DD"/>
<circle cx="565.145" cy="303.861" r="5" transform="rotate(-30 565.145 303.861)" fill="#AFA7DD"/>
<circle cx="458.113" cy="9.01372" r="5" transform="rotate(-30 458.113 9.01372)" fill="#AFA7DD"/>
<circle cx="477.414" cy="42.4493" r="5" transform="rotate(-30 477.414 42.4493)" fill="#AFA7DD"/>
<circle cx="496.715" cy="75.8848" r="5" transform="rotate(-30 496.715 75.8848)" fill="#AFA7DD"/>
<circle cx="516.016" cy="109.32" r="5" transform="rotate(-30 516.016 109.32)" fill="#AFA7DD"/>
<circle cx="535.328" cy="142.755" r="5" transform="rotate(-30 535.328 142.755)" fill="#AFA7DD"/>
<circle cx="554.629" cy="176.191" r="5" transform="rotate(-30 554.629 176.191)" fill="#AFA7DD"/>
<circle cx="573.93" cy="209.627" r="5" transform="rotate(-30 573.93 209.627)" fill="#AFA7DD"/>
<circle cx="593.236" cy="243.063" r="5" transform="rotate(-30 593.236 243.063)" fill="#AFA7DD"/>
<circle cx="612.547" cy="276.498" r="5" transform="rotate(-30 612.547 276.498)" fill="#AFA7DD"/>
<circle cx="524.816" cy="15.086" r="5" transform="rotate(-30 524.816 15.086)" fill="#AFA7DD"/>
<circle cx="544.117" cy="48.5215" r="5" transform="rotate(-30 544.117 48.5215)" fill="#AFA7DD"/>
<circle cx="563.418" cy="81.9571" r="5" transform="rotate(-30 563.418 81.9571)" fill="#AFA7DD"/>
<circle cx="582.723" cy="115.392" r="5" transform="rotate(-30 582.723 115.392)" fill="#AFA7DD"/>
<circle cx="602.02" cy="148.828" r="5" transform="rotate(-30 602.02 148.828)" fill="#AFA7DD"/>
<circle cx="621.32" cy="182.263" r="5" transform="rotate(-30 621.32 182.263)" fill="#AFA7DD"/>
<circle cx="640.633" cy="215.699" r="5" transform="rotate(-30 640.633 215.699)" fill="#AFA7DD"/>
<circle cx="659.94" cy="249.135" r="5" transform="rotate(-30 659.94 249.135)" fill="#AFA7DD"/>
<circle cx="591.504" cy="21.1583" r="5" transform="rotate(-30 591.504 21.1583)" fill="#AFA7DD"/>
<circle cx="610.805" cy="54.5938" r="5" transform="rotate(-30 610.805 54.5938)" fill="#AFA7DD"/>
<circle cx="630.106" cy="88.0289" r="5" transform="rotate(-30 630.106 88.0289)" fill="#AFA7DD"/>
<circle cx="649.422" cy="121.464" r="5" transform="rotate(-30 649.422 121.464)" fill="#AFA7DD"/>
<circle cx="668.723" cy="154.9" r="5" transform="rotate(-30 668.723 154.9)" fill="#AFA7DD"/>
<circle cx="688.023" cy="188.336" r="5" transform="rotate(-30 688.023 188.336)" fill="#AFA7DD"/>
<circle cx="707.336" cy="221.771" r="5" transform="rotate(-30 707.336 221.771)" fill="#AFA7DD"/>
<circle cx="638.906" cy="-6.20503" r="5" transform="rotate(-30 638.906 -6.20503)" fill="#AFA7DD"/>
<circle cx="658.207" cy="27.2305" r="5" transform="rotate(-30 658.207 27.2305)" fill="#AFA7DD"/>
<circle cx="677.508" cy="60.6656" r="5" transform="rotate(-30 677.508 60.6656)" fill="#AFA7DD"/>
<circle cx="696.809" cy="94.1011" r="5" transform="rotate(-30 696.809 94.1011)" fill="#AFA7DD"/>
<circle cx="716.109" cy="127.537" r="5" transform="rotate(-30 716.109 127.537)" fill="#AFA7DD"/>
<circle cx="735.432" cy="160.972" r="5" transform="rotate(-30 735.432 160.972)" fill="#AFA7DD"/>
<circle cx="754.727" cy="194.408" r="5" transform="rotate(-30 754.727 194.408)" fill="#AFA7DD"/>
<circle cx="705.598" cy="-0.132764" r="5" transform="rotate(-30 705.598 -0.132764)" fill="#AFA7DD"/>
<circle cx="724.902" cy="33.3023" r="5" transform="rotate(-30 724.902 33.3023)" fill="#AFA7DD"/>
<circle cx="744.211" cy="66.7378" r="5" transform="rotate(-30 744.211 66.7378)" fill="#AFA7DD"/>
<circle cx="763.512" cy="100.173" r="5" transform="rotate(-30 763.512 100.173)" fill="#AFA7DD"/>
<circle cx="782.813" cy="133.609" r="5" transform="rotate(-30 782.813 133.609)" fill="#AFA7DD"/>
<circle cx="802.113" cy="167.044" r="5" transform="rotate(-30 802.113 167.044)" fill="#AFA7DD"/>
<circle cx="772.305" cy="5.93901" r="5" transform="rotate(-30 772.305 5.93901)" fill="#AFA7DD"/>
<circle cx="791.602" cy="39.3746" r="5" transform="rotate(-30 791.602 39.3746)" fill="#AFA7DD"/>
<circle cx="810.902" cy="72.8101" r="5" transform="rotate(-30 810.902 72.8101)" fill="#AFA7DD"/>
<circle cx="830.215" cy="106.246" r="5" transform="rotate(-30 830.215 106.246)" fill="#AFA7DD"/>
<circle cx="849.516" cy="139.681" r="5" transform="rotate(-30 849.516 139.681)" fill="#AFA7DD"/>
<circle cx="838.988" cy="12.0113" r="5" transform="rotate(-30 838.988 12.0113)" fill="#AFA7DD"/>
<circle cx="858.305" cy="45.4468" r="5" transform="rotate(-30 858.305 45.4468)" fill="#AFA7DD"/>
<circle cx="877.606" cy="78.8829" r="5" transform="rotate(-30 877.606 78.8829)" fill="#AFA7DD"/>
<circle cx="896.906" cy="112.317" r="5" transform="rotate(-30 896.906 112.317)" fill="#AFA7DD"/>
<circle cx="905.691" cy="18.0835" r="5" transform="rotate(-30 905.691 18.0835)" fill="#AFA7DD"/>
<circle cx="925.014" cy="51.5191" r="5" transform="rotate(-30 925.014 51.5191)" fill="#AFA7DD"/>
<circle cx="944.309" cy="84.9551" r="5" transform="rotate(-30 944.309 84.9551)" fill="#AFA7DD"/>
<circle cx="972.395" cy="24.1563" r="5" transform="rotate(-30 972.395 24.1563)" fill="#AFA7DD"/>
<circle cx="991.695" cy="57.5909" r="5" transform="rotate(-30 991.695 57.5909)" fill="#AFA7DD"/>
<circle cx="1019.79" cy="-3.20747" r="5" transform="rotate(-30 1019.79 -3.20747)" fill="#AFA7DD"/>
<circle cx="1039.1" cy="30.2281" r="5" transform="rotate(-30 1039.1 30.2281)" fill="#AFA7DD"/>
<circle cx="1086.49" cy="2.86431" r="5" transform="rotate(-30 1086.49 2.86431)" fill="#AFA7DD"/>
<circle cx="489.865" cy="392.365" r="5" transform="rotate(-30 489.865 392.365)" fill="#AFA7DD"/>
<circle cx="537.252" cy="365.002" r="5" transform="rotate(-30 537.252 365.002)" fill="#AFA7DD"/>
<circle cx="556.553" cy="398.437" r="5" transform="rotate(-30 556.553 398.437)" fill="#AFA7DD"/>
<circle cx="584.654" cy="337.638" r="5" transform="rotate(-30 584.654 337.638)" fill="#AFA7DD"/>
<circle cx="603.955" cy="371.074" r="5" transform="rotate(-30 603.955 371.074)" fill="#AFA7DD"/>
<circle cx="632.045" cy="310.275" r="5" transform="rotate(-30 632.045 310.275)" fill="#AFA7DD"/>
<circle cx="651.346" cy="343.711" r="5" transform="rotate(-30 651.346 343.711)" fill="#AFA7DD"/>
<circle cx="670.658" cy="377.146" r="5" transform="rotate(-30 670.658 377.146)" fill="#AFA7DD"/>
<circle cx="679.451" cy="282.912" r="5" transform="rotate(-30 679.451 282.912)" fill="#AFA7DD"/>
<circle cx="698.752" cy="316.347" r="5" transform="rotate(-30 698.752 316.347)" fill="#AFA7DD"/>
<circle cx="718.049" cy="349.783" r="5" transform="rotate(-30 718.049 349.783)" fill="#AFA7DD"/>
<circle cx="737.35" cy="383.217" r="5" transform="rotate(-30 737.35 383.217)" fill="#AFA7DD"/>
<circle cx="726.834" cy="255.548" r="5" transform="rotate(-30 726.834 255.548)" fill="#AFA7DD"/>
<circle cx="746.135" cy="288.984" r="5" transform="rotate(-30 746.135 288.984)" fill="#AFA7DD"/>
<circle cx="765.451" cy="322.419" r="5" transform="rotate(-30 765.451 322.419)" fill="#AFA7DD"/>
<circle cx="784.752" cy="355.854" r="5" transform="rotate(-30 784.752 355.854)" fill="#AFA7DD"/>
<circle cx="804.053" cy="389.29" r="5" transform="rotate(-30 804.053 389.29)" fill="#AFA7DD"/>
<circle cx="774.229" cy="228.185" r="5" transform="rotate(-30 774.229 228.185)" fill="#AFA7DD"/>
<circle cx="793.537" cy="261.621" r="5" transform="rotate(-30 793.537 261.621)" fill="#AFA7DD"/>
<circle cx="812.838" cy="295.056" r="5" transform="rotate(-30 812.838 295.056)" fill="#AFA7DD"/>
<circle cx="832.139" cy="328.491" r="5" transform="rotate(-30 832.139 328.491)" fill="#AFA7DD"/>
<circle cx="851.455" cy="361.926" r="5" transform="rotate(-30 851.455 361.926)" fill="#AFA7DD"/>
<circle cx="870.74" cy="395.362" r="5" transform="rotate(-30 870.74 395.362)" fill="#AFA7DD"/>
<circle cx="821.631" cy="200.821" r="5" transform="rotate(-30 821.631 200.821)" fill="#AFA7DD"/>
<circle cx="840.932" cy="234.257" r="5" transform="rotate(-30 840.932 234.257)" fill="#AFA7DD"/>
<circle cx="860.24" cy="267.693" r="5" transform="rotate(-30 860.24 267.693)" fill="#AFA7DD"/>
<circle cx="879.541" cy="301.128" r="5" transform="rotate(-30 879.541 301.128)" fill="#AFA7DD"/>
<circle cx="898.842" cy="334.563" r="5" transform="rotate(-30 898.842 334.563)" fill="#AFA7DD"/>
<circle cx="918.143" cy="367.999" r="5" transform="rotate(-30 918.143 367.999)" fill="#AFA7DD"/>
<circle cx="937.443" cy="401.434" r="5" transform="rotate(-30 937.443 401.434)" fill="#AFA7DD"/>
<circle cx="869.014" cy="173.458" r="5" transform="rotate(-30 869.014 173.458)" fill="#AFA7DD"/>
<circle cx="888.334" cy="206.894" r="5" transform="rotate(-30 888.334 206.894)" fill="#AFA7DD"/>
<circle cx="907.635" cy="240.33" r="5" transform="rotate(-30 907.635 240.33)" fill="#AFA7DD"/>
<circle cx="926.936" cy="273.764" r="5" transform="rotate(-30 926.936 273.764)" fill="#AFA7DD"/>
<circle cx="946.232" cy="307.2" r="5" transform="rotate(-30 946.232 307.2)" fill="#AFA7DD"/>
<circle cx="965.537" cy="340.635" r="5" transform="rotate(-30 965.537 340.635)" fill="#AFA7DD"/>
<circle cx="984.846" cy="374.071" r="5" transform="rotate(-30 984.846 374.071)" fill="#AFA7DD"/>
<circle cx="916.416" cy="146.095" r="5" transform="rotate(-30 916.416 146.095)" fill="#AFA7DD"/>
<circle cx="935.717" cy="179.53" r="5" transform="rotate(-30 935.717 179.53)" fill="#AFA7DD"/>
<circle cx="955.018" cy="212.966" r="5" transform="rotate(-30 955.018 212.966)" fill="#AFA7DD"/>
<circle cx="974.338" cy="246.401" r="5" transform="rotate(-30 974.338 246.401)" fill="#AFA7DD"/>
<circle cx="993.639" cy="279.836" r="5" transform="rotate(-30 993.639 279.836)" fill="#AFA7DD"/>
<circle cx="1012.94" cy="313.272" r="5" transform="rotate(-30 1012.94 313.272)" fill="#AFA7DD"/>
<circle cx="1032.24" cy="346.708" r="5" transform="rotate(-30 1032.24 346.708)" fill="#AFA7DD"/>
<circle cx="1051.54" cy="380.143" r="5" transform="rotate(-30 1051.54 380.143)" fill="#AFA7DD"/>
<circle cx="963.811" cy="118.731" r="5" transform="rotate(-30 963.811 118.731)" fill="#AFA7DD"/>
<circle cx="983.111" cy="152.167" r="5" transform="rotate(-30 983.111 152.167)" fill="#AFA7DD"/>
<circle cx="1002.42" cy="185.603" r="5" transform="rotate(-30 1002.42 185.603)" fill="#AFA7DD"/>
<circle cx="1021.72" cy="219.038" r="5" transform="rotate(-30 1021.72 219.038)" fill="#AFA7DD"/>
<circle cx="1041.02" cy="252.473" r="5" transform="rotate(-30 1041.02 252.473)" fill="#AFA7DD"/>
<circle cx="1060.34" cy="285.909" r="5" transform="rotate(-30 1060.34 285.909)" fill="#AFA7DD"/>
<circle cx="1079.64" cy="319.344" r="5" transform="rotate(-30 1079.64 319.344)" fill="#AFA7DD"/>
<circle cx="1098.94" cy="352.78" r="5" transform="rotate(-30 1098.94 352.78)" fill="#AFA7DD"/>
<circle cx="1118.24" cy="386.215" r="5" transform="rotate(-30 1118.24 386.215)" fill="#AFA7DD"/>
<circle cx="1011.21" cy="91.3682" r="5" transform="rotate(-30 1011.21 91.3682)" fill="#AFA7DD"/>
<circle cx="1030.51" cy="124.804" r="5" transform="rotate(-30 1030.51 124.804)" fill="#AFA7DD"/>
<circle cx="1049.81" cy="158.239" r="5" transform="rotate(-30 1049.81 158.239)" fill="#AFA7DD"/>
<circle cx="1069.12" cy="191.674" r="5" transform="rotate(-30 1069.12 191.674)" fill="#AFA7DD"/>
<circle cx="1088.42" cy="225.11" r="5" transform="rotate(-30 1088.42 225.11)" fill="#AFA7DD"/>
<circle cx="1107.72" cy="258.545" r="5" transform="rotate(-30 1107.72 258.545)" fill="#AFA7DD"/>
<circle cx="1127.03" cy="291.981" r="5" transform="rotate(-30 1127.03 291.981)" fill="#AFA7DD"/>
<circle cx="1146.33" cy="325.417" r="5" transform="rotate(-30 1146.33 325.417)" fill="#AFA7DD"/>
<circle cx="1165.63" cy="358.852" r="5" transform="rotate(-30 1165.63 358.852)" fill="#AFA7DD"/>
<circle cx="1184.95" cy="392.288" r="5" transform="rotate(-30 1184.95 392.288)" fill="#AFA7DD"/>
<circle cx="1058.6" cy="64.0049" r="5" transform="rotate(-30 1058.6 64.0049)" fill="#AFA7DD"/>
<circle cx="1077.9" cy="97.4405" r="5" transform="rotate(-30 1077.9 97.4405)" fill="#AFA7DD"/>
<circle cx="1097.22" cy="130.876" r="5" transform="rotate(-30 1097.22 130.876)" fill="#AFA7DD"/>
<circle cx="1116.52" cy="164.311" r="5" transform="rotate(-30 1116.52 164.311)" fill="#AFA7DD"/>
<circle cx="1135.82" cy="197.747" r="5" transform="rotate(-30 1135.82 197.747)" fill="#AFA7DD"/>
<circle cx="1155.12" cy="231.182" r="5" transform="rotate(-30 1155.12 231.182)" fill="#AFA7DD"/>
<circle cx="1174.42" cy="264.618" r="5" transform="rotate(-30 1174.42 264.618)" fill="#AFA7DD"/>
<circle cx="1193.73" cy="298.053" r="5" transform="rotate(-30 1193.73 298.053)" fill="#AFA7DD"/>
<circle cx="1213.03" cy="331.489" r="5" transform="rotate(-30 1213.03 331.489)" fill="#AFA7DD"/>
<circle cx="1232.33" cy="364.924" r="5" transform="rotate(-30 1232.33 364.924)" fill="#AFA7DD"/>
<circle cx="1251.63" cy="398.36" r="5" transform="rotate(-30 1251.63 398.36)" fill="#AFA7DD"/>
<circle cx="1106" cy="36.6417" r="5" transform="rotate(-30 1106 36.6417)" fill="#AFA7DD"/>
<circle cx="1125.3" cy="70.0772" r="5" transform="rotate(-30 1125.3 70.0772)" fill="#AFA7DD"/>
<circle cx="1144.6" cy="103.513" r="5" transform="rotate(-30 1144.6 103.513)" fill="#AFA7DD"/>
<circle cx="1163.9" cy="136.948" r="5" transform="rotate(-30 1163.9 136.948)" fill="#AFA7DD"/>
<circle cx="1183.22" cy="170.383" r="5" transform="rotate(-30 1183.22 170.383)" fill="#AFA7DD"/>
<circle cx="1202.52" cy="203.819" r="5" transform="rotate(-30 1202.52 203.819)" fill="#AFA7DD"/>
<circle cx="1221.82" cy="237.254" r="5" transform="rotate(-30 1221.82 237.254)" fill="#AFA7DD"/>
<circle cx="1241.12" cy="270.69" r="5" transform="rotate(-30 1241.12 270.69)" fill="#AFA7DD"/>
<circle cx="1260.43" cy="304.126" r="5" transform="rotate(-30 1260.43 304.126)" fill="#AFA7DD"/>
<circle cx="1279.73" cy="337.561" r="5" transform="rotate(-30 1279.73 337.561)" fill="#AFA7DD"/>
<circle cx="1299.03" cy="370.997" r="5" transform="rotate(-30 1299.03 370.997)" fill="#AFA7DD"/>
<circle cx="1153.39" cy="9.27837" r="5" transform="rotate(-30 1153.39 9.27837)" fill="#AFA7DD"/>
<circle cx="1172.69" cy="42.7139" r="5" transform="rotate(-30 1172.69 42.7139)" fill="#AFA7DD"/>
<circle cx="1191.99" cy="76.1495" r="5" transform="rotate(-30 1191.99 76.1495)" fill="#AFA7DD"/>
<circle cx="1211.3" cy="109.585" r="5" transform="rotate(-30 1211.3 109.585)" fill="#AFA7DD"/>
<circle cx="1230.6" cy="143.02" r="5" transform="rotate(-30 1230.6 143.02)" fill="#AFA7DD"/>
<circle cx="1249.9" cy="176.456" r="5" transform="rotate(-30 1249.9 176.456)" fill="#AFA7DD"/>
<circle cx="1269.21" cy="209.891" r="5" transform="rotate(-30 1269.21 209.891)" fill="#AFA7DD"/>
<circle cx="1288.51" cy="243.327" r="5" transform="rotate(-30 1288.51 243.327)" fill="#AFA7DD"/>
<circle cx="1307.82" cy="276.762" r="5" transform="rotate(-30 1307.82 276.762)" fill="#AFA7DD"/>
<circle cx="1327.13" cy="310.198" r="5" transform="rotate(-30 1327.13 310.198)" fill="#AFA7DD"/>
<circle cx="1346.43" cy="343.633" r="5" transform="rotate(-30 1346.43 343.633)" fill="#AFA7DD"/>
<circle cx="1365.73" cy="377.068" r="5" transform="rotate(-30 1365.73 377.068)" fill="#AFA7DD"/>
<circle cx="1220.1" cy="15.3506" r="5" transform="rotate(-30 1220.1 15.3506)" fill="#AFA7DD"/>
<circle cx="1239.4" cy="48.7862" r="5" transform="rotate(-30 1239.4 48.7862)" fill="#AFA7DD"/>
<circle cx="1258.7" cy="82.2212" r="5" transform="rotate(-30 1258.7 82.2212)" fill="#AFA7DD"/>
<circle cx="1278" cy="115.657" r="5" transform="rotate(-30 1278 115.657)" fill="#AFA7DD"/>
<circle cx="1297.31" cy="149.092" r="5" transform="rotate(-30 1297.31 149.092)" fill="#AFA7DD"/>
<circle cx="1316.61" cy="182.528" r="5" transform="rotate(-30 1316.61 182.528)" fill="#AFA7DD"/>
<circle cx="1335.91" cy="215.963" r="5" transform="rotate(-30 1335.91 215.963)" fill="#AFA7DD"/>
<circle cx="1355.21" cy="249.399" r="5" transform="rotate(-30 1355.21 249.399)" fill="#AFA7DD"/>
<circle cx="1374.53" cy="282.835" r="5" transform="rotate(-30 1374.53 282.835)" fill="#AFA7DD"/>
<circle cx="1393.83" cy="316.27" r="5" transform="rotate(-30 1393.83 316.27)" fill="#AFA7DD"/>
<circle cx="1286.78" cy="21.4229" r="5" transform="rotate(-30 1286.78 21.4229)" fill="#AFA7DD"/>
<circle cx="1306.08" cy="54.858" r="5" transform="rotate(-30 1306.08 54.858)" fill="#AFA7DD"/>
<circle cx="1325.4" cy="88.2935" r="5" transform="rotate(-30 1325.4 88.2935)" fill="#AFA7DD"/>
<circle cx="1344.7" cy="121.729" r="5" transform="rotate(-30 1344.7 121.729)" fill="#AFA7DD"/>
<circle cx="1364" cy="155.165" r="5" transform="rotate(-30 1364 155.165)" fill="#AFA7DD"/>
<circle cx="1383.3" cy="188.6" r="5" transform="rotate(-30 1383.3 188.6)" fill="#AFA7DD"/>
<circle cx="1402.61" cy="222.035" r="5" transform="rotate(-30 1402.61 222.035)" fill="#AFA7DD"/>
<circle cx="1334.18" cy="-5.94038" r="5" transform="rotate(-30 1334.18 -5.94038)" fill="#AFA7DD"/>
<circle cx="1353.48" cy="27.4947" r="5" transform="rotate(-30 1353.48 27.4947)" fill="#AFA7DD"/>
<circle cx="1372.78" cy="60.9302" r="5" transform="rotate(-30 1372.78 60.9302)" fill="#AFA7DD"/>
<circle cx="1392.1" cy="94.3658" r="5" transform="rotate(-30 1392.1 94.3658)" fill="#AFA7DD"/>
<circle cx="1400.88" cy="0.131396" r="5" transform="rotate(-30 1400.88 0.131396)" fill="#AFA7DD"/>
</g>
</svg>
