<svg width="13" height="13" viewBox="0 0 13 13" fill="none" xmlns="http://www.w3.org/2000/svg">
<path d="M6.36374 1.37799L6.36378 1.37808L7.68472 4.5531L7.80199 4.83496L8.1063 4.85943L11.5345 5.13501L11.5351 5.13506C11.6916 5.14746 11.7568 5.34373 11.636 5.44727L11.6359 5.44731L9.02436 7.68518L8.79251 7.88386L8.86335 8.18086L9.66125 11.5261L9.66126 11.5262C9.69804 11.6803 9.5301 11.8017 9.39557 11.7194L9.39532 11.7193L6.45982 9.92652L6.19919 9.76735L5.93857 9.92655L3.00386 11.7193C2.86786 11.8023 2.70057 11.6796 2.73718 11.5262L2.73719 11.5261L3.53509 8.18086L3.60593 7.88386L3.37408 7.68518L0.762498 5.44731L0.762452 5.44727C0.642055 5.34413 0.706209 5.14708 0.863793 5.1343C0.863838 5.1343 0.863883 5.13429 0.863928 5.13429L4.29275 4.85944L4.59721 4.83503L4.71448 4.55301L6.0347 1.37799L6.0347 1.37799C6.0955 1.23175 6.30294 1.23175 6.36374 1.37799Z" stroke="#FF9C06"/>
</svg>
