<svg width="51" height="53" viewBox="0 0 51 53" fill="none" xmlns="http://www.w3.org/2000/svg">
<g id="freepik--Moon--inject-90">
<path id="Vector" d="M37.1168 43.6688C32.2735 43.6708 27.523 42.3395 23.386 39.8209C19.249 37.3023 15.8851 33.6935 13.663 29.39C11.4408 25.0865 10.4461 20.2544 10.7879 15.4231C11.1297 10.5918 12.7947 5.9478 15.6006 2C12.0124 3.79173 8.87968 6.37778 6.44062 9.56166C4.00156 12.7455 2.3203 16.4435 1.52458 20.3745C0.728864 24.3055 0.839625 28.3662 1.84845 32.248C2.85727 36.1298 4.73761 39.7306 7.3466 42.7768C9.9556 45.8229 13.2246 48.2344 16.9052 49.8278C20.5858 51.4213 24.5812 52.1549 28.5878 51.9728C32.5945 51.7907 36.5069 50.6978 40.0278 48.7771C43.5487 46.8564 46.5855 44.1584 48.9075 40.8881C45.2473 42.7203 41.2099 43.6725 37.1168 43.6688Z" stroke="#FDD59A" stroke-miterlimit="10"/>
</g>
</svg>
