<svg width="30" height="30" viewBox="0 0 30 30" fill="none" xmlns="http://www.w3.org/2000/svg">
<rect x="0.75" y="0.493103" width="29.25" height="29.0151" rx="14.5075" fill="white"/>
<rect x="1" y="0.743103" width="28.75" height="28.5151" rx="14.2575" stroke="#F97316" stroke-opacity="0.5" stroke-width="0.5"/>
<path d="M12 22.5081C11.9016 22.5093 11.8041 22.4899 11.7137 22.4512C11.6233 22.4124 11.542 22.3552 11.475 22.2831C11.175 21.9831 11.175 21.5181 11.475 21.2181L17.7 14.9931L11.475 8.7831C11.175 8.4831 11.175 8.0181 11.475 7.7181C11.775 7.4181 12.24 7.4181 12.54 7.7181L19.275 14.4831C19.575 14.7831 19.575 15.2481 19.275 15.5481L12.525 22.2831C12.375 22.4331 12.18 22.5081 12 22.5081Z" fill="#F97316"/>
</svg>
