<svg width="25" height="25" viewBox="0 0 25 25" fill="none" xmlns="http://www.w3.org/2000/svg">
<g id="Vector">
<path id="Vector_2" d="M21.6706 20.2367L18.3152 16.8921C19.5447 15.3872 20.1493 13.4668 20.0037 11.5282C19.8582 9.58966 18.9737 7.78124 17.5332 6.47702C16.0928 5.17281 14.2065 4.47258 12.2647 4.52117C10.3228 4.56976 8.47387 5.36346 7.10034 6.73809C5.7268 8.11272 4.93373 9.96311 4.88518 11.9065C4.83663 13.8499 5.5363 15.7377 6.83948 17.1793C8.14266 18.6209 9.94964 19.5061 11.8867 19.6517C13.8237 19.7974 15.7425 19.1924 17.2463 17.9618L20.6018 21.3064C20.7443 21.4442 20.9353 21.5205 21.1335 21.5188C21.3317 21.517 21.5213 21.4375 21.6614 21.2972C21.8016 21.157 21.8811 20.9672 21.8828 20.7689C21.8845 20.5705 21.8083 20.3794 21.6706 20.2367ZM12.466 18.16C11.27 18.16 10.1008 17.8051 9.10636 17.1401C8.1119 16.4751 7.33682 15.5299 6.87912 14.424C6.42142 13.3182 6.30167 12.1013 6.535 10.9273C6.76833 9.75336 7.34427 8.675 8.18999 7.82861C9.0357 6.98222 10.1132 6.40582 11.2863 6.1723C12.4593 5.93878 13.6752 6.05863 14.7802 6.5167C15.8851 6.97476 16.8296 7.75046 17.4941 8.74571C18.1585 9.74096 18.5132 10.911 18.5132 12.108C18.5114 13.7126 17.8737 15.2509 16.74 16.3855C15.6063 17.52 14.0693 18.1582 12.466 18.16Z" fill="white"/>
</g>
</svg>
