<svg width="21" height="21" viewBox="0 0 21 21" fill="none" xmlns="http://www.w3.org/2000/svg">
<g id="Regular/Star">
<path id="Vector" d="M11.2272 14.9173L15.1647 17.4173C15.6725 17.7376 16.2975 17.261 16.149 16.6751L15.0084 12.1907C14.9776 12.0664 14.9825 11.9359 15.0226 11.8143C15.0627 11.6926 15.1363 11.5848 15.235 11.5032L18.7662 8.55788C19.2272 8.17507 18.9928 7.40163 18.3912 7.36257L13.7819 7.06569C13.6561 7.05838 13.5352 7.01458 13.4339 6.93966C13.3326 6.86474 13.2554 6.76194 13.2115 6.64382L11.4928 2.31569C11.4473 2.19062 11.3644 2.08257 11.2554 2.00622C11.1464 1.92987 11.0165 1.88892 10.8834 1.88892C10.7503 1.88892 10.6205 1.92987 10.5114 2.00622C10.4024 2.08257 10.3195 2.19062 10.274 2.31569L8.55529 6.64382C8.51149 6.76194 8.43423 6.86474 8.33294 6.93966C8.23166 7.01458 8.11075 7.05838 7.98498 7.06569L3.37561 7.36257C2.77404 7.40163 2.53967 8.17507 3.00061 8.55788L6.53186 11.5032C6.63056 11.5848 6.70419 11.6926 6.74427 11.8143C6.78436 11.9359 6.78926 12.0664 6.75842 12.1907L5.70373 16.3469C5.52404 17.0501 6.27404 17.6204 6.87561 17.2376L10.5397 14.9173C10.6424 14.8519 10.7617 14.8172 10.8834 14.8172C11.0052 14.8172 11.1244 14.8519 11.2272 14.9173Z" fill="#9D9FA2"/>
</g>
</svg>
