<svg width="25" height="25" viewBox="0 0 25 25" fill="none" xmlns="http://www.w3.org/2000/svg">
<g id="Vector">
<path id="Vector_2" d="M17.2771 5.5188C16.4798 5.5312 15.6999 5.75381 15.0161 6.16415C14.3324 6.57449 13.769 7.15802 13.3828 7.85583C12.9967 7.15802 12.4333 6.57449 11.7495 6.16415C11.0658 5.75381 10.2858 5.5312 9.48855 5.5188C8.21756 5.57403 7.02009 6.13015 6.15774 7.06565C5.29539 8.00115 4.83827 9.24 4.88624 10.5115C4.88624 13.7317 8.27496 17.2486 11.1171 19.633C11.7516 20.1664 12.5539 20.4588 13.3828 20.4588C14.2117 20.4588 15.014 20.1664 15.6486 19.633C18.4907 17.2486 21.8794 13.7317 21.8794 10.5115C21.9274 9.24 21.4702 8.00115 20.6079 7.06565C19.7455 6.13015 18.5481 5.57403 17.2771 5.5188ZM14.7387 18.5495C14.3592 18.8692 13.879 19.0445 13.3828 19.0445C12.8866 19.0445 12.4064 18.8692 12.0269 18.5495C8.38895 15.4965 6.30234 12.5674 6.30234 10.5115C6.25393 9.61548 6.56174 8.73662 7.15862 8.06665C7.7555 7.39669 8.59304 6.98996 9.48855 6.93518C10.3841 6.98996 11.2216 7.39669 11.8185 8.06665C12.4154 8.73662 12.7232 9.61548 12.6748 10.5115C12.6748 10.6994 12.7494 10.8795 12.8821 11.0123C13.0149 11.1451 13.195 11.2197 13.3828 11.2197C13.5706 11.2197 13.7507 11.1451 13.8835 11.0123C14.0163 10.8795 14.0909 10.6994 14.0909 10.5115C14.0425 9.61548 14.3503 8.73662 14.9471 8.06665C15.544 7.39669 16.3816 6.98996 17.2771 6.93518C18.1726 6.98996 19.0101 7.39669 19.607 8.06665C20.2039 8.73662 20.5117 9.61548 20.4633 10.5115C20.4633 12.5674 18.3767 15.4965 14.7387 18.5467V18.5495Z" fill="white"/>
</g>
</svg>
